<?xml version="1.0" encoding="utf-8"?>
<!DOCTYPE svg PUBLIC "-//W3C//DTD SVG 1.1//EN" "http://www.w3.org/Graphics/SVG/1.1/DTD/svg11.dtd">
<svg version="1.1" id="Layer_1" xmlns="http://www.w3.org/2000/svg" xmlns:xlink="http://www.w3.org/1999/xlink" x="0px" y="0px"
	 viewBox="0 0 1920 1373" enable-background="new 0 0 1920 1373" xml:space="preserve">
<linearGradient id="SVGID_1_" gradientUnits="userSpaceOnUse" x1="960" y1="1373" x2="960" y2="-4.310095e-008">
	<stop  offset="0" style="stop-color:#F6B746"/>
	<stop  offset="1" style="stop-color:#ED7642"/>
</linearGradient>
<rect fill="url(#SVGID_1_)" width="1920" height="1373"/>
<path fill="#020101" d="M1,1185c2.6409,0.7407,0.337,3.1804,1.5197,4.4257c-0.0732,0.9506-0.4691,2.2089,0.8449,2.4309
	c1.3305,0.2247,1.3545-1.0771,1.4867-2.0015c0.8203-5.7358,1.3846-11.6656,3.9346-16.8383
	c3.1206-6.3306,3.1244-12.6418,2.0272-19.2372c0.9387-1.6133-1.686-4.0377,1.1862-5.2108
	c2.1345,8.6589,4.269,17.3179,6.7247,27.2793c0.5419-5.2245,0.9487-9.1466,1.3555-13.0687c1.8183,1.119,1.0822,2.9467,1.1929,4.5018
	c0.2933,4.118,0.4901,8.2429,0.7253,12.3651c0.0093,1.6497-0.2869,3.3754,0.1006,4.9309c0.5594,2.2456-1.5715,6.4875,2.3135,6.2883
	c3.0257-0.1549,1.3139-4.0985,1.3696-6.2917c0.1959-7.7061,0.0761-15.4202,0.0761-24.6536
	c1.3115,6.3933,2.3322,11.3694,3.3529,16.3453c-0.2045,1.4456-0.0246,2.832,0.6362,4.1447
	c0.2006,2.4105-0.4588,4.9747,1.4081,7.0822c0.4861,0.5486,0.3028,1.215-0.469,1.47c-0.2507,0.0831-0.7454,0.0095-0.8476-0.1609
	c-0.2098-0.3499-0.4155-0.8749-0.3009-1.2214c3.1995-9.6692,2.1125-19.9742,4.4368-29.7687
	c0.2141-0.5244,0.4283-1.0487,0.6424-1.5731c2.3059,0.5862,0.9948,2.4293,1.0218,3.5585c0.2142,8.9574,0.192,17.9202,0.3426,26.8796
	c0.0224,1.3323-0.7256,3.2469,1.3662,3.7467c0.8737,0.2087,2.2808,0.0698,2.7963-0.4991c1.0664-1.177-0.7366-2.3181-0.5736-3.6128
	c0.3579-0.4083,0.7157-0.8167,1.0736-1.225c2.8035,2.082,2.2888-0.298,2.4136-1.7997c0.5382-6.4722,0.603-13.0079,2.8904-19.3202
	c0.7445,7.4929,0.8294,14.9614,0.7,22.4263c-0.0475,2.7438,0.6986,3.6726,3.6522,3.6035c3.2844-0.0768,4.1498-1.4506,4.5785-4.4094
	c1.1089-7.6528,1.9649-15.3824,4.7009-22.7375c-0.0656,7.7841-0.4964,15.5234-0.8857,23.2649
	c-0.0702,1.3962-0.6665,3.1777,1.8952,3.0708c1.7297-0.0723,3.2873,0.0146,3.4755-2.4357c0.1303-1.6968,0.7996-3.3522,1.552-6.2917
	c0.3958,2.5115,0.589,3.7375,0.736,4.6702c0.8385-9.6438,1.6992-19.5425,2.5599-29.4413c0.6786-2.4313,1.0713-4.8972,0.9047-7.4314
	c0.1857-0.2489,0.2114-0.5135,0.0772-0.7937c0.2501-1.7357,0.5001-3.4713,0.7502-5.207c0.0745-0.9261,0.1491-1.8522,0.2236-2.7783
	c2.295,0.8263,1.2619,2.7761,1.2632,4.2114c0.012,13.3857-0.1053,26.7716-0.1137,40.1573c-0.0009,1.3812-0.7433,2.9834,0.725,4.1412
	l0.2362,0.1987c0.4637,0.6298,0.8956,0.4808,1.3118-0.0535c0.7553-0.6478,0.7602-1.5277,0.7466-2.4135
	c0.5864-2.5115,1.1728-5.0231,1.7592-7.5345c0.1259-0.6036,0.2517-1.2073,0.3776-1.8109c0.4578-1.3666,0.9155-2.7332,1.3733-4.0997
	c0.1426-0.5406,0.2853-1.0814,0.4279-1.6221c1.7056,1.4752,0.6041,3.3818,0.7651,5.0892c0.2889,3.063-1.272,6.1207-0.0495,9.194
	c0.4667,0.739,0.9335,1.478,1.4002,2.217c2.4268,1.5808,4.8406,1.1331,7.2497-0.0464c0.7043-1.0256,0.6061-2.1815,0.5406-3.332
	c0.6332-4.5321,1.2664-9.0641,1.8996-13.5962c0.0483-0.5032,0.0967-1.0062,0.145-1.5094c2.2423,2.7755,0.7601,5.9885,0.9453,8.9808
	c0.1662,2.6857-0.4418,5.495,3.6763,5.2416c-0.3912,1.4153-3.0637,2.8934-0.5804,4.2045c1.9238,1.0157,3.1491-0.8473,3.7984-2.6437
	c0.1631-0.4513,0.2169-0.9421,0.3209-1.4148c1.6734-1.6602,1.272-3.3098-0.0249-4.9551c-0.4433-1.6708-0.8866-3.3417-1.3299-5.0125
	c0,0-0.1591,0.0471-0.1591,0.0471c2.2357-0.6766,2.7167,1.4141,3.5237,2.5265c2.1023,2.8978,3.8869,6.0253,5.8185,9.0483
	c0.4998,0.7823,0.9014,1.9796,2.1459,1.4131c1.0367-0.4717,0.9066-1.6089,0.8866-2.5862c0.7656-2.8062,1.5312-5.6122,2.2968-8.4183
	c0.2646-0.719,0.5291-1.438,0.7937-2.157c1.6386,3.3201,0.1174,6.704,0.2407,10.0522c0.0416,1.1301-1.3322,3.2305,1.5301,3.0172
	c1.7475-0.3003,3.9174,1.1221,5.1534-1.2638c0.8524-1.7561-0.5129-3.9867,1.3796-5.8417c0.6781,2.3346,1.2967,4.4644,1.9056,6.5607
	c2.0905-0.156,0.8672-2.4661,1.8971-3.2024c1.0926,0.8976,0.3783,2.312,1.6332,2.6923c3.4156,1.0204,5.4382,0.5227,4.7422-3.8071
	c-0.4951-3.08-0.5328-6.2335-0.7747-9.3542c0-2.8387,0-5.6775,0-9.9202c1.0717,2.257,1.5185,3.198,1.9653,4.1389
	c0.1134,0.7212,0.2269,1.4423,0.3403,2.1635c0.6146,3.4772,1.2292,6.9545,1.8438,10.4316
	c-0.2439,2.2472,0.7177,3.9761,2.3316,5.4247c5.6436,1.8195,6.5211,1.3207,6.6354-4.1534
	c0.1045-5.0044,0.0222-10.0127,0.0222-15.0193c0.5333,0.007,1.0666,0.0139,1.5999,0.0209c0.4847,3.2474,0.9694,6.495,1.4541,9.7424
	c0.0457,0.866,0.0914,1.7319,0.1371,2.5979c-0.1211,2.1661-0.5013,4.3528,0.508,6.4297c2.1292,1.0244,4.2248,0.7324,6.3051-0.161
	c0.3799-9.3573,0.7597-18.7147,1.1714-28.8558c0.8297,1.5956,1.2598,2.4229,1.69,3.2501c0.1096,0.7692,0.2193,1.5383,0.3289,2.3075
	c0.5932,4.5291,1.1863,9.0581,1.7794,13.5872c0.0694,1.1267,0.1387,2.2535,0.2081,3.3802c0,1.8586,0,3.7173,0,5.576
	c1.7863-1.7263,1.8123-3.6395,1.6671-5.5857c0.0999-1.0679,0.1998-2.1359,0.2997-3.2037c0.6015-3.2595,1.203-6.519,1.8045-9.7786
	c0.1845-0.1356,0.2119-0.2977,0.0822-0.4863c0.4947-1.0753,0.9893-2.1506,1.484-3.226c0.2287,0.0621,0.4574,0.1241,0.686,0.1862
	c0,3.3832,0,6.7662,0,10.1493c-0.0198,0.8252-0.0397,1.6504-0.0595,2.4756c-0.007,0.4788-0.014,0.9574-0.0209,1.4362
	c-0.1068,2.0793-0.2757,4.158-0.3053,6.2384c-0.04,2.8125,1.2853,2.9315,3.2721,1.5345c1.5639-7.3726,0.4702-14.9084,1.6484-22.3889
	c0.4756,2.3448,0.9513,4.6898,1.4269,7.0347c0.2512-0.0441,0.5025-0.0881,0.7537-0.1322c0.3328-3.2654,0.6657-6.5309,0.9986-9.7963
	c0.0546-0.4995,0.1092-0.999,0.1639-1.4985c0.5914-3.1729,1.1827-6.3457,1.7741-9.5186c0.0644-0.4777,0.1288-0.9553,0.1933-1.433
	c0.273-1.188,0.5459-2.3761,0.8189-3.5641c0.0681-0.4301,0.1363-0.86,0.2044-1.29c0.1424-0.4989,0.2848-0.9978,0.4272-1.4967
	c0.1719-0.9083,0.3437-1.8167,0.5156-2.725c0.7914-1.3896,1.2007-2.8707,1.0706-4.4806l0.0769-0.25
	c0.7173-0.7974,0.9165-1.7402,0.7807-2.7773c0.1842-0.1395,0.2132-0.306,0.0871-0.4995c1.9353,1.157,0.8647,2.9377,0.7844,4.4055
	c-0.2143,3.9183-1.0393,7.8011-0.6561,11.7557c-0.0659,2.1346-0.1319,4.2692-0.1978,6.4038
	c-0.1315,4.4843-1.5353,8.9639-0.0502,13.4542c0.7027,1.4791,1.4054,2.9583,2.1081,4.4374c0.3203,0.875,0.6406,1.7499,0.9609,2.6249
	c-0.1119,0.1964-0.0693,0.3501,0.1277,0.4609c-0.1318,0.9155,0.163,1.6732,0.8469,2.2866c0.2511,0.9929,0.5022,1.986,0.7532,2.9789
	c0.6788,2.351-1.0102,6.4827,4.1237,5.4828c0.3992-0.2189,0.7983-0.4379,1.1974-0.6567c1.3018-4.6128,1.5713-9.3647,1.9009-14.1085
	c0.0503-0.452,0.1006-0.9042,0.151-1.3562c1.0725-3.7958,1.645-7.67,1.826-11.6061c0.0566-0.4697,0.1132-0.9395,0.1698-1.4092
	c2.134,0.9768,1.1171,2.8507,1.1179,4.3295c0.0042,7.0685-0.1238,14.137-0.1911,21.2054c-0.0223,2.3461-0.0166,4.7081,3.4286,2.7426
	c0.1933-0.4954,0.3865-0.9907,0.5798-1.4861c0.2701-1.1205,0.5402-2.2408,0.8103-3.3613c0.1533-0.7175,0.3067-1.4349,0.46-2.1525
	c0.8035-0.7972,0.9179-1.7988,0.847-2.8555l0.102-0.291l0.3167-0.2053l-0.0468-0.3561c0.1808-0.5363,0.3616-1.0725,0.5424-1.6088
	c2.4445,3.8553-0.775,8.094,0.8126,12.0073c3.146,0.1205,6.4542,1.5182,9.2429-1.1742c1.132-3.7229,1.3971-7.5769,1.7285-11.421
	c0.0895-0.8121,0.179-1.6244,0.2685-2.4365c2.0809,3.8986,0.4974,8.0649,0.8735,12.0892c0.1997,2.1364,0.1438,2.1416,2.4743,1.5507
	c0.3423-0.066,0.5789-0.2606,0.7099-0.5836c1.1308,0.7471,1.9847,2.3475,3.7272,1.2094c1.4907-0.2048,1.41-1.1295,1.0086-2.2013
	c-0.2455-0.5895-0.4911-1.1788-0.7367-1.7683c-0.3935-1.0884-0.787-2.1768-1.1805-3.2651c0.1832-0.8392-0.6115-2.0261,0.8561-2.4089
	c2.1514,2.9131,4.3028,5.826,6.4542,8.7391c1.6104,1.4604,3.2771,0.9333,4.9514,0.1404c1.0845-0.7532,0.93-1.9448,1.073-3.0313
	c1.0701-0.384,0.0683-2.4413,1.8304-2.2665c1.4387,1.3898-0.2377,3.2985,0.7925,4.7563c1.4427,1.0215,2.8646,0.6495,4.2815-0.0637
	c1.0276-1.3788,0.7246-2.9518,0.6555-4.4906c0.058-0.8083,0.116-1.6167,0.174-2.425c0.6131-3.847,1.2263-7.694,1.8394-11.541
	c0.1259-0.6635,0.2518-1.327,0.3777-1.9905c0.2184-0.5609,0.4368-1.1218,0.6552-1.6827c1.6553,0.7738,0.9179,2.2712,0.9602,3.4592
	c0.1573,4.416,0.2008,8.8358,0.2871,13.2543c-0.0587,0.4915-0.1414,0.9813-0.1718,1.4745
	c-0.1493,2.4171-0.4013,4.5353,3.3878,4.2644c3.326-0.238,4.7186-0.9933,4.2673-4.6676
	c-0.6645-5.4104-0.8182-10.8871-1.0744-16.3409c-0.0586-1.2463-1.1024-3.0917,1.3358-3.46c0.425,1.574,0.85,3.1478,1.275,4.7218
	c-0.1784,0.983,0.1218,1.8296,0.7372,2.5863c0.0808,0.4703,0.1616,0.9408,0.2425,1.4111c-0.1167,1.5183,0.199,2.9056,1.4565,4.4199
	c0.8503-1.9304,1.6162-3.6694,2.3822-5.4086c3.0156-3.6136,4.4438-8.5763,9.1436-10.7587c-0.2771,0.7725-0.5542,1.545-0.8313,2.3175
	c-0.4181,1.1864-0.8362,2.3728-1.2543,3.5592c-1.1728,1.7157-1.8094,3.4362-0.0453,5.1776
	c1.3413,4.2561,2.7153,8.5022,3.9994,12.7755c0.3002,0.9988,0.4717,2.0071,1.7471,2.0006c1.8295-0.0092,1.3564-1.4249,1.4816-2.5232
	c0.6078-5.3325-2.7309-9.408-4.4091-14.0111c0.2027-0.1494,0.2353-0.3297,0.0978-0.5409l0.2957-0.2087l0.2537,0.1312l0.2749-0.0775
	c0.7728,0.9772,1.5275,1.98,3.0106,2.2958c1.0481-5.6664-0.8524-11.3229,1.0828-16.708c-0.1098,2.7389,0.2658,5.407,1.1674,7.9983
	c0.0762,0.8442,0.1523,1.6884,0.2285,2.5326c0.4615,3.902,0.416,7.877,1.6829,11.6627c0.3047,2.0503,1.6004,3.6073,2.6353,5.2942
	c0.4762,2.9211,2.0121,4.2925,5.1002,3.6888c3.2643-0.6379,1.7717-3.0697,1.6914-4.7178
	c-0.2707-5.558-0.8031-11.1033-1.2354-16.6533c0.3824-2.067-0.6002-4.2622,0.5866-6.2538c0.0358,1.329,0.5141,2.4948,1.3075,3.5442
	l0.0871,0.3468c0.6137,2.2625,1.2275,4.5249,1.8412,6.7874c0.1161,0.7479,0.2322,1.4957,0.3483,2.2437
	c0.5513,2.5479,1.1027,5.0958,1.654,7.6437c0.1793,1.9901-0.1402,4.1353,1.9495,6.3827c0-12.953-0.0516-25.1228,0.0625-37.291
	c0.015-1.5968-1.1504-3.649,1.0444-4.8478c-0.1928,2.001,0.1276,3.9156,0.9668,5.7429c0.0872,0.8112,0.1744,1.6222,0.2616,2.4333
	c0.606,4.1166,1.2121,8.2333,1.8181,12.3499c0.0557,0.5511,0.1114,1.1024,0.1671,1.6536c0.5873,5.483,1.1747,10.9662,1.762,16.4492
	c0.0737,0.8248,0.1474,1.6497,0.2211,2.4745c0.0457,0.6486,0.5106,0.7802,0.9784,0.6201c0.724-0.2477,0.8115-0.8694,0.6546-1.5454
	c0.0896-1.1089,0.1793-2.2178,0.2689-3.3267c0.7903-1.8256,1.0573-3.7346,0.9116-5.7096c0,0,0.0589-0.3622,0.0589-0.3622
	c0.1975-0.839,0.3951-1.6781,0.5926-2.5171c0.132-0.8536,0.2639-1.7073,0.3959-2.5609c0.5303-1.8329,1.0606-3.6658,1.5909-5.4987
	c0.1876-0.7196,0.3752-1.4391,0.5629-2.1587c0.8445-0.704,0.9714-1.6737,0.9933-2.6823c0.612-1.2188,1.224-2.4375,1.836-3.6563
	c0.2843-0.5771,0.8313-1.1625,0.8138-1.7303c-0.3158-10.2397-0.1671-20.5098-1.8286-30.6692
	c-0.1126-1.5403-0.2252-3.0807-0.3378-4.6211c0.4326,0.0376,0.8652,0.0752,1.2978,0.1128l0.0708,0.3062
	c-0.1676,1.0469,0.153,1.941,0.8499,2.7177c0.0673,1.3883,0.0683,2.7924,0.9494,3.9868c-0.0493,1.4786,0.0701,2.9171,0.9923,4.1642
	c0.3978,2.0181,0.7956,4.0361,1.1934,6.0542c-0.1555,1.408,0.0465,2.7413,0.8246,3.9546c0.0998,0.7312,0.1996,1.4624,0.2994,2.1936
	c-0.2083,1.6082,0.1802,3.1105,0.8111,4.5697c-0.1411,0.1769-0.1158,0.3253,0.076,0.4456
	c0.4187,3.8694,0.8375,7.7388,1.3229,12.2242c1.4781-2.7224,1.7228-4.9802,1.5654-7.3174c0.043-0.4446,0.086-0.8893,0.129-1.3339
	c1.6674,1.4468,0.9087,3.3928,0.9562,5.1174c0.1548,5.6157-0.0133,11.2454,0.9479,16.8149
	c0.0675,1.4889,0.1351,2.9777,0.2026,4.4666c-0.0266,0.9946-0.2278,2.0236-0.0409,2.9763c0.318,1.6217-0.6866,4.4635,1.8952,4.3998
	c3.1945-0.0787,1.6936-3.0851,1.6716-4.7466c-0.1081-8.1576-0.5139-16.3108-0.6881-24.4683
	c-0.0325-1.5226-0.8971-3.3599,0.9325-4.5568c0.0943,0.4729,0.1887,0.9459,0.283,1.4188c0.6042,2.4551,1.2085,4.9103,1.8127,7.3654
	c-0.1296,0.2201-0.1036,0.42,0.0778,0.5999c0.6512,5.2963,1.3025,10.5924,1.9537,15.8887c0.2263-0.0239,0.4525-0.048,0.6788-0.0719
	c0.3471-5.2633,0.6942-10.5267,1.0413-15.79c0.0987-1.1094,0.1975-2.2189,0.2962-3.3282c0.754-1.8096,1.0653-3.6909,0.9166-5.647
	c0.1946-0.1515,0.2229-0.3295,0.085-0.5338c0.211-0.8007,0.422-1.6014,0.6329-2.4021c0.0948-0.5531,0.1896-1.1062,0.2844-1.6593
	c2.152,0.8599,1.3205,2.8054,1.4041,4.2803c0.2802,4.9508,0.3585,9.913,0.5141,14.8708c0.0159,4.7821,0.1831,9.5699-0.0033,14.3442
	c-0.1339,3.4287,1.1504,4.5269,4.3654,3.5294c2.7853,0.4656,2.3728-1.6797,2.4608-3.1871
	c0.433-7.4153,0.7753-14.8359,1.1497-22.2546c0.0724-0.7789,0.1448-1.5577,0.2171-2.3367c0.8202-1.015,0.4785-2.6505,1.8114-3.3918
	c0.0746,2.8993,0.1491,5.7987,0.2237,8.698c-0.1838,7.1344-0.1389,14.2599,0.8362,21.349c1.2295,1.2139,1.6528-0.0076,2.1336-0.7606
	c1.6968-2.6581,3.3464-5.3464,5.0139-8.0233c1.636-2.2717,1.5278-4.944,1.7322-7.5444c0.0646-0.4976,0.1292-0.995,0.1938-1.4926
	c0.7196-1.766,1.1883-3.5773,0.9966-5.5082l0.0749-0.405c0.2067-0.8221,0.4134-1.6442,0.62-2.4663
	c0.1234-0.8143,0.2468-1.6287,0.3702-2.443c0.688-0.8008,1.1041-1.6895,0.8978-2.7792c1.7609,1.0376,0.4188,2.7863,0.9413,4.1075
	c-1.4515,8.042-1.0114,16.2275-1.8434,24.3168c-0.3143,3.0555,0.9323,3.9902,3.76,2.7159c1.3857-0.3961,1.1736-1.5234,1.1693-2.5555
	c0.243-1.1537,0.486-2.3073,0.729-3.4609c0.0948-0.834,0.1897-1.6681,0.2845-2.5021c3.6647,1.8793-0.2899,5.6024,2.3635,8.7578
	c0.5531-3.9896,0.9925-7.1594,1.4319-10.3293c0.4561-0.8784,0.1935-2.2292,1.9887-2.7561c0,2.1587-0.0349,4.0371,0.0096,5.9135
	c0.046,1.9357,0.1694,3.8693,0.2589,5.8038c5.9762,2.1223,7.1758,1.3923,6.8498-4.3898c-0.1585-2.8107-0.5986-5.6056-0.9113-8.4076
	c0.5556-1.1113-0.795-2.7799,1.0291-3.5205c0.2189,0.496,0.4377,0.9918,0.6566,1.4878c0.1616,0.6483,0.3232,1.2968,0.4849,1.9451
	c-0.0984,1.3118,0.39,2.4081,1.2238,3.4254c0.7545-0.7712,0.6555-1.6598,0.5227-2.5552c0.0446-0.4393,0.0891-0.8787,0.1337-1.318
	c0.6024-3.9221,1.2941-7.8334,1.7678-11.771c0.2212-1.839-0.3971-2.3457-1.5366-0.4713c0.1202-0.2971,0.0528-0.5428-0.2021-0.7372
	c0.1598-1.5575,0.2921-3.1096-0.8499-4.9427c-1.3311,1.6163-1.8578,3.0261-1.6541,4.7242l0.3191-0.1102l-0.1191-0.3158
	c-1.0102-0.9487,0.0759-2.9641-1.7736-3.4858c-0.6251-0.7258-1.5468,1.2354-2.0903-0.2303
	c0.2159-0.4797,0.7851-0.9995,0.0511-1.4487c-0.6691-0.4095-1.0193,0.1821-1.3771,0.6218
	c-0.6403-0.7797-1.5384,1.4973-2.1032-0.1774l-0.0106-0.0176c0.899-0.6008,1.9828-1.3148,1.4048-2.4821
	c-0.3755-0.7582-1.3586-0.2252-2.0243,0.1763c-1.7786-0.5891-1.7786-0.5891-0.0971-3.2433c-1.7758-0.6791-3.044,0.821-4.5924,1.0332
	c1.5183-1.7615,1.6301-1.8427,0.2304-3.7716c-0.7613-1.0493,0.238-1.0752,0.5468-1.314c3.6564-2.8291-1.2687-1.7964-1.3063-2.9403
	c1.1774,0.2798,2.2439-0.2885,2.069-1.3297c-0.1622-0.9656-1.5035-1.0522-2.5266-0.9679c-1.3203-3.3899,3.1622,0.1676,2.5742-2.3976
	c0.3994-1.9102-3.2044-0.4491-2.8387-3.778c0.3702-3.3696,3.7053-1.3038,3.9515-3.4326c-2.0884-1.5765-2.2368-1.9626-1.3661-3.4178
	c0.5659,0.5435,1.3688,1.1929,1.9115,0.4088c0.6948-1.0039-0.5084-1.0695-1.0991-1.3711c2.2158-0.8252,3.7766-4.0923,2.8985-6.0243
	c0.0276-0.015-0.0592,0.0065-0.0592,0.0065c1.6293-0.531,5.0016,0.7509,3.3355-3.2073c0.3124,0.0171,0.6248,0.0342,0.9372,0.0511
	c0.6129,0.845,1.0878,2.265,2.4196,1.478c0.8098-0.4783,0.193-1.3696-0.4555-1.9066c-0.1469-0.3848-0.2938-0.7695-0.4407-1.1543
	c0.2567-0.3019,0.5134-0.6039,0.7701-0.9059c0,0,0.2501,0.2714,0.2501,0.2714c0.2684,3.3177,3.1841,1.6614,4.4315,1.7566
	c1.8123,0.1381,1.7811-2.2375,1.7479-3.8788c1.5075,0.8854-0.1263,3.1241,1.7484,4.0414c1.1672-1.4359,2.2752-2.7893,2.4483-4.666
	l0.2935-0.0743l0.0507,0.0259c0.2289,1.2708-0.4357,2.8632,1.0245,3.684c0.6416,0.3607,1.0147-0.3752,1.1628-1.0056
	c0.1193-0.1096,0.2307-0.2299,0.3604-0.3253c0.103-0.0759,0.2282-0.1216,0.3436-0.1807c0.5327,1.2798,1.0654,2.5596,1.727,4.1492
	c0.7084-1.3011,1.2311-2.2612,2.271-4.1713c-0.1544,3.9878,1.6652,5.2162,4.4111,5.4401c0.1411,3.4045,3.2716,1.303,4.6097,2.5027
	l0.0065-0.0184c-1.1427,0.1437-2.1486,1.0281-1.7574,1.8982c0.8744,1.9453,2.6469-0.9044,3.8517,0.4011
	c-1.2161,0.7097-2.4338,1.4181-2.5819,2.9847c1.1778,0.9731,2.3079-0.5059,3.4386,0.0386c-0.6312,1.259-2.392,1.3513-2.4774,3.0138
	c1.2405,0.3131,2.466,0.6224,3.6914,0.9316c-1.0878-0.0193-2.6715-0.4519-2.7657,1.0427c-0.0891,1.4147,1.3933,1.5461,2.6091,1.4535
	l0.1879,0.0914c0.0092,0.4625,0.0185,0.9249,0.0277,1.3875c-0.6743,0.0774-1.3486,0.1548-2.0229,0.2323
	c-0.6008-0.235-1.4258-0.5393-1.462,0.3876c-0.0293,0.7477,0.9019,0.7345,1.5448,0.7726c0.8888,0.6215,1.7776,1.243,2.6664,1.8645
	c-1.2367,0.5597-3.5693-1.0537-3.6327,1.8322c4.3644,3.6367-2.9883,0.9041-1.5701,2.947c0.2873,1.4652,2.1581,0.8259,3.5126,3.0762
	c-5.316-3.4464-2.8066,2.8011-5.4669,2.7107c0.5376,0.8229,0.9887,1.7466,2.1489,1.8438l-0.0483-0.0432
	c-3.6171,0.3126-2.5037,3.0203-2.592,5.1195l0.2194-0.0142c-0.9162-1.1616-1.8774-2.2555-3.5014-2.4043
	c-0.9007,1.048,0.9525,2.0828-0.0491,3.0409c-1.3055-0.0698-1.7538-2.0549-3.5592-1.4211c0.0605,1.1823,0.3853,2.1744,1.4866,2.8191
	l-0.1204-0.0745c-0.9953,1.6344-4.0892-4.5021-4.0134,1.0845c0.0021,0.1556,0.0542,0.3107,0.0877,0.4651
	c0.0025,0.0116,0.0424,0.0212,0.065,0.0212c0.6667-0.0012,0.2271-0.0339-0.0892-0.5043c-3.3859-5.0354-2.149,2.267-4.022,1.1896
	c-0.4099-0.8577,0.5971-2.4653-1.5793-3.5162c-1.0139,8.558-2.0025,16.9032-2.9806,25.231c0.0262-0.0536,0.0419-0.0898,0.0576-0.126
	c-0.0952,0.0409-0.1905,0.0817-0.2858,0.1224c3.1089-3.998,4.9566-8.959,9.3607-12.396c0.7225,3.7593-3.6139,6.7219-1.2255,10.6156
	c1.0919-1.1453,1.8004-2.5342,2.8542-2.8846c5.2202-1.7362,5.0153-5.8301,3.9511-9.7085c-0.8203-2.9897-0.9211-3.8121,2.5658-3.2804
	c3.2176,0.4908,5.4294-1.4854,4.552-4.7435c-0.8844-3.2839-0.7782-5.1868,2.9742-5.9231c1.1719-0.23,1.6711-1.6257,1.4894-2.8771
	c-0.9614-6.6228,3.1427-10.8545,7.0797-15.1755c0.2428-0.239,0.4856-0.4781,0.7284-0.7172c0.2728-0.098,0.3564-0.2821,0.2509-0.552
	c2.8799-1.9004,3.1843-0.2104,3.4523,2.2383c0.5421,4.9534-1.3814,9.9352,0.2678,14.851c0.0385,0.4434,0.0769,0.8868,0.1153,1.3302
	c-0.2169,2.2948,0.0527,4.5295,0.8258,6.7024c0.0808,1.1116,0.1617,2.2233,0.2425,3.3348
	c0.3995,5.7084,0.9951,11.4131,1.1017,17.127c0.0424,2.2747,1.71,2.2954,2.795,3.2102c-0.1066,0.234-0.0592,0.431,0.1423,0.5908
	c4.9789,1.3741,5.3055,1.2412,5.0725-3.1732c-0.2943-5.575-0.815-11.1382-1.238-16.7064c-0.0468-1.4579-0.0935-2.9159-0.1403-4.3738
	c1.8653,0.2062,0.9252,2.325,2.0634,3.0267c0.0632,0.4226,0.1265,0.8452,0.1897,1.2678c0.2999,1.5006,0.5998,3.0012,0.8997,4.5018
	c-0.1267,0.207-0.0955,0.3867,0.0938,0.5389c-0.2425,1.5923,0.3303,3.0262,0.8674,4.4672c0.0625,0.5121,0.1251,1.024,0.1876,1.5361
	c0.2552,2.9531,0.1985,5.9698,1.7628,8.6565c2.4388,0.5437,4.8522,0.7524,7.1512-0.5435c1.0274-3.9958,0.829-8.0554,0.631-12.1151
	c0.0173-0.7941,0.0347-1.5881,0.052-2.3822c0.0212-1.5562,0.0424-3.1122,0.0635-4.6683c0.0345-1.0824,0.0689-2.1649,0.1033-3.2473
	c1.9196,1.066,1.0444,3.3278,2.0475,4.7859c0.056,0.8289,0.112,1.6578,0.168,2.4867c0.2939,3.8467,0.5879,7.6932,0.8818,11.5399
	c0.0938,1.2123-0.824,2.8835,0.7236,3.4225c0.627,0.2184,1.7947-1.1157,2.7163-1.7434c0.2202,0.2477,0.4437,0.4922,0.6707,0.7336
	c1.4973,2.048,2.6214,1.8179,2.8573-0.6804c0.2102-2.2255,0.0125-4.4893-0.0051-6.7362c0.0036-0.5176,0.0072-1.0352,0.0108-1.5527
	c0.0037-0.8292,0.0074-1.6583,0.011-2.4875c0.0331-4.5533,0.0661-9.1066,0.0992-13.6599c-0.0067-0.6979-0.0135-1.3958-0.0202-2.0936
	c0.5854-0.5593,1.2008-0.4264,1.8255-0.0792c0.0726,0.4325,0.1451,0.8651,0.2177,1.2976c0.585,3.2328,1.17,6.4655,1.7551,9.6982
	c0.0987,1.1208,0.1974,2.2418,0.2962,3.3627c0.291,4.3086,0.5821,8.6171,0.8732,12.9257c0.3144,0.0131,0.6288,0.0262,0.9431,0.0393
	c0.6059-4.6649,1.2117-9.3297,1.8176-13.9945c0.1005-0.7487,0.201-1.4972,0.3015-2.2458c0.5202-1.9065,1.0403-3.8129,1.5604-5.7194
	c0.1087-0.4929,0.2174-0.9857,0.3261-1.4786c1.7975,1.1927,0.9074,2.9938,0.8825,4.4974
	c-0.0927,5.5908-0.3768,11.1781-0.5516,16.7679c-0.0344,1.1011-0.3138,2.4729,1.3006,2.7451
	c1.1784,0.1987,2.413,0.1812,2.2861-1.6106c0.0205-0.462,0.041-0.924,0.0616-1.386c0.404-6.3605,0.808-12.7208,1.2537-19.7375
	c0.5939,1.4574,0.9156,2.2467,1.5609,3.8302c0.4283-3.79,0.7609-6.7322,1.0934-9.6743c0.1735-0.1816,0.1956-0.38,0.0662-0.5953
	c0.5619-2.4598,1.1238-4.9198,1.6857-7.3796c0.8397-2.7061,1.6794-5.4122,2.5192-8.1183c1.2796-1.7692,2.6256-3.5173,1.882-5.9287
	c-0.0964-2.13-0.1928-4.26-0.2892-6.39c0.7542-2.5897-1.1559-5.2174,0.1117-7.8003c1.7-0.0986,0.7997,1.8953,1.8603,2.3113
	c0.143,0.6329,0.286,1.266,0.429,1.8989c0.2687,0.8912,0.5375,1.7826,0.8062,2.6738c0,0,0.0785,0.2988,0.0785,0.2988
	c-0.1297,1.0438,0.0608,1.9955,0.8021,2.7887c0.1441,0.4302,0.2883,0.8602,0.4324,1.2904
	c-0.0406,2.9528,0.6827,5.7548,1.6785,8.5029l0.0584,0.426c0.0281,1.6991-0.2646,3.4906,1.8352,5.5176c0-2.3472,0-3.9275,0-5.5078
	c0.0714-0.7927,0.1428-1.5854,0.2141-2.3782c0.7759-1.828,1.0665-3.7314,0.8866-5.7079c0.035-0.3438,0.07-0.6875,0.105-1.0313
	c1.5996,1.6616,0.8435,3.7406,0.8943,5.6248c0.2883,10.6879,0.4695,21.3787,2.0263,31.985
	c0.0422,0.5269,0.0844,1.0537,0.1266,1.5806c-0.1752,4.3307,0.528,8.5121,1.9511,12.6205
	c1.0904-11.9263,0.6709-23.7629-0.0782-35.5972c-0.1152-4.1736-0.2305-8.3473-0.3458-12.5209
	c0.5224-0.6157-0.3272-1.8817,0.981-2.1644c0.4725,1.0786,0.9234,2.1079,1.3742,3.1371c0.0767,0.4955,0.1534,0.9908,0.23,1.4863
	c0.2593,1.1328,0.5186,2.2657,0.7779,3.3986c-0.1359,0.2354-0.1069,0.4484,0.087,0.639c-0.2571,1.6357,0.1376,3.1559,0.8199,4.6251
	c0.1246,1.4359,0.2491,2.8718,0.3737,4.3077c-0.2654,2.3689,0.441,4.5471,1.5339,6.6948c0-1.9221,0-3.8441,0-5.7662
	c0.0739-1.4749,0.1477-2.9496,0.2216-4.4244c0.5374-4.1401,1.0747-8.2802,1.6121-12.4203c0.1096-0.869,0.2191-1.738,0.3286-2.6071
	c0.5744-1.4473,1.203-2.8824,1.0049-4.5022l0.0791-0.3091c2.0487,1.4436,1.1927,3.6233,1.2584,5.4811
	c0.3113,8.8129,0.4825,17.6305,0.7037,26.4465c-0.2946,6.9976,0.3172,13.9535,0.8559,20.9192
	c0.1646,2.1273,0.9246,3.1202,3.0481,2.6984c1.1059-0.2196,2.9701,0.5073,2.8001-1.7129
	c-0.7115-9.2916,0.9969-19.0796-5.4985-27.2032c0.5734-0.0365,1.1468-0.073,1.7202-0.1095
	c0.6911,0.6163,1.3822,1.2328,2.0733,1.8491c0.5161,0.9391,1.3526,1.8251,1.7495,0.1809c0.3965-1.6422,0.0933-3.4534,0.0969-5.1904
	c0.0674-1.4664,0.1348-2.933,0.2023-4.3994c1.8493-3.4348-0.7928-8.0619,2.9203-11.002c0.028,2.4451,0.056,4.8901,0.084,7.3352
	c-0.1075,7.167-0.2775,14.3368,0.9286,21.4469c1.0319,2.1819,2.0638,4.3639,3.0958,6.5458
	c0.1861,1.1842,0.4417,2.3242,1.9762,3.1918c0.2871-2.6401,0.5325-4.8978,0.7781-7.1556c0.0463-0.4708,0.0927-0.9417,0.139-1.4125
	c0.2835-1.827,0.567-3.6539,0.8503-5.481c0.0574-0.5203,0.1147-1.0406,0.172-1.5609c0.6995-1.7714,1.0403-3.5999,0.877-5.5085
	c0.0881-0.7284,0.1761-1.4567,0.2642-2.1851c1.1377-2.4619,1.1282-5.1449,1.4951-7.7554c0.1174-0.8812,0.2349-1.7626,0.3523-2.6438
	c0.5336-1.4335,1.0672-2.8668,2.127-5.7141c0,4.9969,0,8.4623-0.0001,11.9275c-0.054,1.4812-0.1079,2.9624-0.1619,4.4436
	c-1.1279,10.1274-1.6997,20.275-1.1091,30.465c2.4056,1.1399,2.2135-0.5577,2.223-2.0352c0.604-1.4471,0.9247-2.9406,0.7389-4.5168
	c0.075-0.7937,0.15-1.5875,0.2251-2.3812c0.6927-1.4834,1.0432-3.0287,0.8455-4.6731c0.0485-0.3906,0.0969-0.7813,0.1453-1.1719
	c0.6035-1.1898,0.9329-2.4337,0.746-3.7795c0.0886-0.8052,0.1772-1.6105,0.2658-2.4156c0.9459-2.0931,1.1854-4.3113,1.1638-6.5757
	c1.1472-1.2959,1.2141-2.8881,1.2327-4.4935c2.3452-0.8978,1.1959-2.9093,1.4277-4.4806c0.0532-0.8258,0.1064-1.6515,0.1596-2.4773
	c0.7453-2.8092,1.1107-5.6581,0.8928-8.5676c0.1793-0.1323,0.1942-0.2809,0.0446-0.4459c0.2845-2.5215,0.5691-5.043,0.8536-7.5645
	c0.0624-0.8064,0.1248-1.6128,0.1871-2.4192c0.6255-4.8567,1.2511-9.7133,1.8766-14.5699c0.0437-0.493,0.0874-0.9861,0.131-1.4791
	c0.4621-0.0018,0.9241-0.0038,1.3862-0.0056c-1.0311,20.7128-0.438,41.4244,0.3297,62.193c0.4156-2.7561,0.8314-5.5121,1.247-8.2682
	c0.2865-1.4714,0.5729-2.9427,0.8594-4.4142c0.5418-1.473,0.7462-2.9456-0.0079-4.4163c1.1036-0.9366,1.9864-1.9862,1.8255-3.5695
	c0.1489-0.7529,0.2977-1.506,0.4465-2.2589c0.7244-0.7933,1.0038-1.7223,0.8491-2.7838l0.0912-0.3308
	c2.1728,0.0812,1.4489,1.6796,1.4254,2.8292c-0.0554,2.7194-0.1932,5.4368-0.2977,8.155c0.0533,0.4489,0.1066,0.8978,0.1599,1.3467
	c0.1289,0.8757,0.5676,1.5251,1.3859,1.8973c1.3151,2.3444,2.6301,4.6888,4.3821,7.812c1.299-2.7988,2.1141-4.5551,2.9292-6.3113
	c0.6859-2.0673,1.0296-4.1792,0.8313-6.3621c0.0507-0.486,0.1014-0.972,0.1522-1.458c1.7458-3.7362-0.1227-8.4167,3.0757-11.7734
	c-0.0895,3.9932-0.2679,7.9868-0.24,11.9791c0.0219,3.1212,1.2849,1.8499,2.4399,0.5541c1.7159,0.9109,0.1217,2.1384,0.3057,3.1959
	c-0.5306,1.2175-1.0612,2.4349-1.5918,3.6525c-2.7844,6.6521-0.9972,13.4819-0.5331,20.3007
	c0.7911-4.4907,1.5822-8.9814,2.3732-13.4722c0.0798-0.4656,0.1595-0.9313,0.2391-1.3969c0.2563-0.8256,0.5125-1.6511,0.7687-2.4767
	c0.2175-0.1825,0.2769-0.4067,0.1779-0.6729c0.2823-0.8177,0.5646-1.6354,0.8469-2.4531c0.1964-0.151,0.242-0.3385,0.1368-0.5627
	c0.6511-0.6874,1.082-1.4628,0.98-2.4512c0.4407-0.955,0.8815-1.9099,1.3222-2.8649c0.968-0.8894,0.8987-1.7832,0.0112-2.6804
	c-0.1859-0.5913-0.3717-1.1826-0.5576-1.7739c-0.3512-1.351-0.4556-2.8035-1.5781-3.8373c-0.075-0.6923-0.15-1.3846-0.2251-2.0769
	c0.6343,0.3562,1.2686,0.7125,1.9028,1.0687c0.6462,0.7622,1.2925,1.5244,1.9387,2.2866c0.3439,1.1737,1.0546,2.0747,2.0529,2.762
	c1.3848,2.3718,2.7695,4.7435,4.1542,7.1154c0.1485,1.1641,0.4612,2.2258,1.9787,2.8643c0.5659-2.6168,1.1148-5.1549,1.6637-7.693
	c0.1633-0.8206,0.3265-1.641,0.4897-2.4615c0.7604-0.761,0.975-1.6908,0.8435-2.7275l0.0815-0.2552
	c2.948,3.4037-0.0178,7.3676,1.0375,10.9506c-0.0677,1.4172-0.1354,2.8346-0.2031,4.2518
	c-0.3713,3.5225-1.6817,7.0504,0.0623,10.5603c0.0974,0.5106,0.1948,1.0212,0.2922,1.5319
	c0.1157,0.6444,0.1958,1.2976,0.3538,1.9315c0.4945,1.986,0.2859,4.3839,3.648,4.0973c3.6107-0.3077,2.5438-2.9067,2.5728-4.7771
	c0.1358-8.757,0.1091-17.5162,0.1404-26.2748c0.233-0.1544,0.3569-0.3711,0.3719-0.6501c0.0978,0.1899,0.2532,0.2784,0.4665,0.2656
	c0.1368,0.4541,0.2736,0.9081,0.4104,1.3622c1.4989,6.3875,1.5429,13.024,3.2711,17.3799c1.2325-2.4752-1.0287-7.0243,0.3917-11.479
	c0.3567-0.0894,0.7133-0.1782,1.0699-0.267c0.0704,0.5009,0.1409,1.0018,0.2113,1.5027c-0.2552,1.5596,0.3201,2.9611,0.8322,4.3746
	c0.0742,0.5282,0.1483,1.0563,0.2224,1.5845c0.6033,3.7853,1.2065,7.5704,1.8097,11.3557c0.0587,0.5323,0.1172,1.0648,0.1759,1.5972
	c-0.0682,0.9362-0.3383,1.9225,0.6454,2.5973c1.8297,0.9613,2.3397-0.0641,2.3135-1.6304
	c-0.0349-2.0898-0.1909-4.1779-0.2949-6.2666c0.2502-5.5729-0.111-11.1145-0.8492-16.6368
	c-0.0615-1.4712-0.1229-2.9425-0.1843-4.4137c-0.0293-1.9725-0.141-3.9481-0.0706-5.9171c0.1432-4.0049-1.7964-8.0359,0.1458-12.015
	c2.5614,11.4222,2.4472,23.8031,12.7164,33.6575c0-11.2356,0-21.6436,0-32.0514c3.642,13.149,3.3817,26.458,3.7047,39.736
	c0.0451,1.8555-1.689,4.9373,2.59,5.0515c4.2884,0.1149,3.1464-2.9792,3.3098-5.1593c1.0712-14.2946,0.8747-28.6233,1.0394-42.9425
	c0.0128-1.1096-0.4879-2.4449,1.0472-3.8853c2.5524,10.2108,2.9941,20.0956,4.1925,29.9054
	c1.4738-8.3019,1.9977-16.7742,5.088-24.7057c0.4633,15.259-1.3704,30.4674,0.4302,45.6909
	c1.7422-3.7412,2.0389-7.6224,1.953-11.5618c1.7048-9.9172,1.1132-20.0072,2.0987-30.1609
	c1.7474,0.8027,0.3522,3.0056,2.5104,3.8048c0.2684-3.0063,0.5252-5.8823,0.782-8.7584c1.8661-9.3199,3.7322-18.6398,5.5984-27.9597
	c2.8603,1.6077,0.3341,4.2769,1.2358,6.2705c-0.2976,4.2888-0.7032,8.5735-0.8638,12.8674
	c-0.1729,4.6205-1.5432,9.8636,0.129,13.7511c3.854,8.9597,5.6106,18.2748,7.4073,27.6722
	c0.2252,3.6741,0.4503,7.3481,0.6754,11.0222c0.5948-0.019,1.1896-0.0381,1.7844-0.0571c0-5.5278,0-11.0555,0-16.5834
	c1.7418-11.0991,2.5363-22.3555,5.8541-33.2509c0,14.7764,0,29.5527,0,44.329c2.3907-9.2146,3.2316-18.7101,7.1708-27.4119
	c-0.2722,10.3821-0.8968,20.6831-1.4282,30.9888c-0.0573,1.1127-0.9645,2.8679,1.2447,3.1248
	c1.5165,0.1763,1.8212-1.0658,2.3091-2.1433c4.2499-9.3855,8.5038-18.7474,8.6284-29.3677
	c0.0245-2.0889,0.7196-4.1698,1.1054-6.2544c0.2103,0.0188,0.4206,0.0376,0.6309,0.0564c0,5.0303,0,10.0605,0,15.4194
	c1.5811-0.0631,2.2061-2.032,4.0775-1.1808c-4.2343,7.0544-5.6241,14.542-3.2255,22.5459
	c-0.4038-10.9757,10.7583-20.1169,3.9138-32.8323c5.9836,4.8912,8.3974,10.9375,12.0203,16.7097
	c1.7158-5.23,1.9931-10.1216,4.6367-14.2021c0.2903,0.9292,0.1996,1.7495,0.1545,2.5721c-0.41,7.4806-0.9786,14.9586-1.1087,22.4443
	c-0.036,2.0735,0.3705,4.5256,4.0205,4.3223c3.5144-0.1956,3.5425-1.9896,3.5148-4.5333
	c-0.0753-6.9175-0.0258-13.8362-0.0258-20.7543c3.9144,7.7346,3.1998,16.3547,5.4864,24.3472
	c1.6317-7.868,1.6266-15.8649,4.7011-23.3909c0.5651,6.4581,0.5222,12.8905,0.5814,19.3219c0.0349,3.7885,2.773,5.4073,6.0806,3.686
	c1.9097-0.9939,1.4009-2.811,1.4135-4.4169c0.058-7.4431-1.5331-14.8506-0.1809-22.4067c1.2166,4.4677,2.4332,8.9354,3.8644,14.1914
	c3.397-6.3197,6.1054-12.01,11.425-15.9779c-3.7659,5.774-2.1675,11.1407,0.4091,16.6168c1.0469,2.225,1.3294,4.8003,2.0765,7.1794
	c0.4143,1.3192,0.0137,3.7413,1.9388,3.5106c2.3419-0.2808,0.9528-2.6775,1.2223-4.132c0.9686-5.2261-3.1992-9.1854-4.0085-14.8762
	c2.9014,2.7432,4.0549,2.558,3.8953-0.9556c-0.1879-4.1381-0.044-8.2913-0.044-12.4915c1.2956,1.5206,1.0511,3.4371,1.3513,5.2058
	c1.3517,7.9633,1.063,16.298,5.7816,23.4862c1.2205,1.8595,1.8108,3.9548,4.678,3.2478c2.9141-0.7186,1.5257-2.9854,1.4678-4.4941
	c-0.2908-7.5836-0.8134-15.1582-1.2545-22.7358c4.0658,8.1132,4.9434,17.0057,8.0469,25.4186c0-13.0978,0-26.1956,0-39.2933
	c3.6994,13.1432,4.4905,26.6472,6.6173,40.0092c1.8741-8.1908,1.9184-16.7898,5.4324-24.3109
	c3.4968-7.4843,3.6875-15.0275,3.122-22.8342c-0.6056-8.3604-0.2888-16.8204-2.55-25.0133l0.153,0.0326
	c2.4297,4.4567,3.472,9.3604,4.4247,14.261c1.8585,9.5614,3.5696,19.1515,5.4844,29.5006c0.7383-3.8528,1.3201-6.8892,1.902-9.9254
	c0.1954,11.5692,0.6408,23.052,1.6611,34.5121c0.1136,1.2759-0.1008,2.9432,1.9485,2.7025
	c1.7312-0.2035,1.1515-1.7305,1.2248-2.7814c0.0808-1.1599-0.012-2.3313-0.0123-3.4977
	c-0.0027-9.8488-0.0016-19.6974-0.0016-29.1007c2.5554,7.2958,3.2745,15.5275,4.4213,23.7543
	c1.9822-9.6517,1.4071-19.7343,5.288-29.1051c0.6404,11.4592,0.502,22.8884,0.7754,34.308c0.046,1.9248-2.1015,5.6182,2.8167,5.8038
	c4.9456,0.1864,3.516-3.256,3.6174-5.7493c0.3608-8.8771,0.7418-17.745,2.3051-26.4974c0.5127,0.0026,1.0254,0.005,1.5381,0.0074
	c0,10.1227,0,20.2452,0,30.7576c10.1218-9.0374,9.5436-21.1918,12.863-31.9423c-0.0695,9.7183-0.5718,19.3392-0.9984,28.9637
	c-0.0587,1.3234-0.7372,3.1268,1.7892,3.24c2.0345,0.0912,2.4688-1.0443,2.7593-2.6992c0.6024-3.4308,1.3547-6.8353,2.0454-10.2506
	c0.2401,0.0333,0.4803,0.0668,0.7204,0.1001c0,3.746,0,7.4919,0,11.2378c1.6691-4.4366,1.4592-9.2874,3.833-13.5291
	c0.383,3.3521,0.405,6.6646,0.3759,9.9763c-0.0223,2.5248-0.5649,4.906,3.6583,4.5933c4.0974-0.3033,3.8568-2.2933,3.5485-5.2543
	c-0.4518-4.34-0.4962-8.7222-0.7141-13.0864c0.3292-0.0463,0.6584-0.0925,0.9876-0.1388c1.2212,4.4913,2.4424,8.9825,3.9396,14.4889
	c3.2744-6.4187,6.0995-12.0524,11.2239-16.7092c-0.1164,1.1211,0.0335,1.8889-0.2776,2.3359
	c-3.6664,5.27-0.9993,10.0424,0.9236,14.9777c0.7303,1.8744,1.8516,2.2979,3.424,1.8347c2.3005-0.6777,0.7253-2.0769,0.3336-3.1249
	c-0.7908-2.1149-1.7139-4.1804-3.121-7.5594c3.2574,2.8171,4.8306,3.5759,4.388-0.6927c-0.4048-3.9037-0.0859-7.8824-0.0859-11.8282
	c1.5352,5.8428,2.3205,11.7543,3.2096,17.6501c0.3028,2.0079-0.3001,4.6377,2.6347,5.2791c2.8989,0.6333,3.9699-1.629,5.3904-3.509
	c1.3276-1.7571,1.491-3.5938,1.3598-5.6344c-0.2068-3.2189-0.309-6.4443-0.4554-9.6669c2.1472,3.6996,3.2237,7.5719,4.2262,11.4631
	c0.5716,2.2185-0.1104,6.099,2.4289,5.9863c2.0905-0.0925,1.0623-3.9725,1.075-6.1401c0.0953-16.2299,0.0519-32.4604,0.0519-50.047
	c2.8654,18.5759,4.2903,35.9708,6.1367,53.2577c0.3257-1.3474-0.4295-2.9419,0.9177-4.4429c0.2,0.9819,0.2612,1.7938,0.5347,2.5264
	c0.7149,1.9152-0.2823,5.1052,3.5598,4.7465c4.1313-0.3857,2.2581-3.4811,2.2006-5.3341c-0.2222-7.172-0.7953-14.333-1.2377-21.4982
	c2.4493,7.3376,3.9601,14.7847,5.0642,22.2915c0.429,2.9167,0.9561,4.3833,4.4504,4.1979c3.5078-0.186,4.0596-1.7424,3.9998-4.6837
	c-0.1339-6.5828-0.042-13.17-0.042-19.7555c0.4857,0.0071,0.9714,0.014,1.4571,0.0211c1.8397,7.0322,1.2325,14.3955,2.3538,21.9696
	c1.8581-1.1436,2.5063-2.9955,4.6593-3.1832c-0.2627,0.7634-0.5692,1.345-0.6479,1.9558c-0.1158,0.8989-1.9616,2.1152,0.2689,2.6599
	c1.6686,0.4073,2.4589-0.5492,2.4881-2.1918c0.0178-0.9994,0.0518-1.9987,0.0522-2.998c0.0042-8.808,0.0024-17.6158,0.0024-26.4238
	c4.2591,9.269,3.659,19.3188,5.5836,28.9181c1.345-8.1589,1.8121-16.3928,4.6992-23.9525c0,7.1351-0.0775,14.2875,0.0627,21.4355
	c0.0295,1.5031-1.4281,4.1414,1.5223,4.3175c2.8563,0.1707,2.1459-2.5424,2.1724-4.1293
	c0.1271-7.6423,0.0571-15.2881,0.0571-22.9326c2.7136,4.6696,1.6404,9.9136,3.7271,15.2462
	c2.0053-10.5187,3.902-20.3821,8.343-29.7065c-5.2434,14.1018,0.9574,26.7103,4.5947,39.5725
	c5.5786-10.765,7.2209-22.1652,5.2903-34.2052c0.5681,1.4824,1.1362,2.9648,1.7008,4.4381
	c2.8802-5.9808,9.1085-8.6586,13.0489-13.5811c4.0798-5.0964,6.2633-10.6133,6.046-17.3717
	c-11.55,8.2069-26.4094,3.2061-28.6338-10.0277c3.6671,2.3888,6.8707,4.5938,10.1959,6.597
	c1.9575,1.1792,3.9108,2.3998,6.5309,1.5839c5.9886-1.8652,11.3134-9.5059,10.4634-15.8392
	c-0.9845-7.3365-1.3542-14.5872,1.0182-21.7401c0.5298-0.9718,1.0598-1.9435,1.5896-2.9153
	c0.1593-0.3317,0.3186-0.6633,0.4779-0.995c0.947-0.76,1.6484-1.679,1.8794-2.9026c7.4449-10.769,16.2867-19.8584,29.0857-24.1896
	c2.1079-0.2258,4.1281-0.7381,5.9702-1.8306c0.6813-0.1439,1.3626-0.2877,2.0439-0.4316c2.5098-0.599,5.0196-1.1981,7.5294-1.797
	l0.3706-0.0492c7.244-0.8455,14.4906-1.3715,21.7511-0.1765c0.7133,0.1318,1.4265,0.2635,2.1398,0.3953
	c1.9636,0.5399,3.9274,1.0798,5.891,1.6196c0.7399,0.1401,1.4796,0.2803,2.2195,0.4204c0.78,0.7786,1.7383,0.9652,2.7904,0.8398
	l0.2759,0.0741c0.7953,0.725,1.7361,0.963,2.7869,0.8325l0.3806,0.0697c2.0607,1.1296,4.264,1.7841,6.6039,1.9847
	c0.2521,0.244,0.5493,0.3273,0.8916,0.2501c1.5503,1.0262,3.2908,1.4653,5.1119,1.6554c0.3883,0.0819,0.7767,0.1638,1.165,0.2457
	c0.7891,0.6619,1.667,1.051,2.7249,0.8875l0.3822,0.1215c0.7764,0.7184,1.7111,0.9084,2.7299,0.8182l0.2891,0.0668
	c2.2019,1.4352,4.7225,1.3333,7.156,1.2756c2.3053-0.0547,5.2634,0.6259,5.5054-3.1708c0.0946-0.3966,0.1891-0.7932,0.2837-1.1898
	c1.1172-1.4046,1.4332-3.0878,1.6687-4.799c0.094-0.3983,0.1879-0.7966,0.2817-1.1949c0.7173-0.801,1.05-1.724,0.8899-2.8035
	l0.0645-0.2444c0.6597-0.8049,0.9688-1.7159,0.8365-2.7607c0.1863-0.1225,0.213-0.2733,0.0802-0.4523
	c1.1428-2.0198,1.6354-4.2244,1.8488-6.5082c0.089-0.4207,0.178-0.8415,0.2671-1.2622c1.1609-1.7443,1.25-3.7824,1.5778-5.7551
	c0.13-0.7449,0.26-1.4897,0.3899-2.2345c1.1666-2.4584,1.553-5.0959,1.7833-7.7693c0.0978-0.7162,0.1956-1.4324,0.2933-2.1486
	c1.1406-2.4727,1.3843-5.1311,1.6127-7.7926c0.0991-0.8222,0.1982-1.6445,0.2974-2.4667c1.1785-3.7745,1.6414-7.6593,1.7848-11.5932
	c0.0676-0.7682,0.1353-1.5366,0.2029-2.3048c1.2644-6.1702,1.8407-12.4053,1.7628-18.702
	c0.5747-8.0728,0.5038-16.1465,0.0345-24.2209c-0.0175-12.2409-0.8636-24.4398-1.8586-36.631
	c-0.801-37.1005,4.542-73.2944,15.873-108.6309c1.2241-3.8177,4.7023-8.0488-0.9268-11.5566
	c-0.6962-0.4338-0.8357-2.1531-0.8173-3.2698c0.0603-3.6533-0.3046-7.4653,0.6025-10.9257
	c3.2495-12.3945,10.6108-21.3876,23.3281-24.8629c10.5776-2.8904,17.868-9.1539,21.9659-19.2501
	c1.0725-1.0014,1.8065-2.1833,1.9607-3.6747l0.1006-0.2577c0.9762-0.6957,1.3018-1.75,1.5648-2.8387
	c2.4828-4.8354,4.7745-9.7536,6.4692-14.9305c1.0629-1.1523,1.5669-2.5531,1.8092-4.0701l0.0586-0.2144
	c0.9929-1.0526,1.5192-2.3284,1.7834-3.7295c0.188-0.4987,0.3759-0.9974,0.5638-1.4962c0.9362-0.9982,1.678-2.0926,1.7443-3.5217
	c0.2335-0.0537,0.3091-0.1931,0.2267-0.4182c0.5018-0.8702,1.0037-1.7404,1.5055-2.6105c0.7443-1.3483,1.4886-2.6965,2.2329-4.0447
	c0.9669-0.7532,1.5704-1.7309,1.8108-2.9328c0.7673-1.3119,1.5347-2.6238,2.3019-3.9358c1.4375-0.9919,2.0267-2.5323,2.6282-4.0649
	c2.4918-3.9304,4.9836-7.8607,7.4756-11.791c0.9292-0.4622,1.345-1.2867,1.5797-2.2389
	c5.0031-7.1378,9.9636-14.3032,14.2982-21.8778c0.4745-0.6509,0.9489-1.3018,1.4232-1.9528
	c0.1873-0.3577,0.3746-0.7154,0.5619-1.0731c1.0436-0.7665,1.7474-1.7543,1.9833-3.0466c1.7358-1.9548,3.1396-4.1199,4.1416-6.5396
	c1.0544-0.8434,1.7549-1.899,1.951-3.2567l0.0955-0.1445c1.3794-1.038,1.9912-2.5571,2.569-4.0977
	c7.994-12.6616,15.0555-25.7964,20.2396-39.8839c3.8734-7.3885,5.7666-15.5385,8.9194-23.2069
	c2.7313-6.6432,5.7777-13.0929,10.3302-18.7155c4.0836-5.0435,9.1156-8.88,15.4187-10.5047c3.2562-0.8393,4.0234-2.5121,4.27-5.565
	c1.5276-18.9156,2.7552-37.877,5.0887-56.6985c1.5952-12.8647,5.1475-25.4352,10.9097-37.2102
	c3.7068-7.5748,8.6707-14.1782,15.3184-19.4526c18.2823-14.5052,44.967-8.5999,55.2853,12.542
	c8.0333,16.4604,11.5626,34.2107,14.5435,52.1891c3.0649,18.4853,1.6906,36.4728-3.3613,54.3174
	c-0.8951,3.1617-2.5111,6.1194-3.7942,9.1712c-0.6716,0.4768-1.0531,1.1035-1.0065,1.951
	c-1.5298,2.0341-0.4099,3.6243,0.8685,5.1868c0.2501,1.2814,0.9227,2.2803,2.0151,2.9969c0,0,0.0303-0.1307,0.0273-0.1286
	c0.0399,0.69,0.3572,1.1331,1.0791,1.2154c0,0-0.2664-0.0037-0.2661-0.0038c0.5128,0.5762,1.0256,1.1525,1.5383,1.7288
	c6.635,4.4435,10.1246,11.2818,13.73,18.0325c0.2379,1.5697,0.7738,3.0005,1.9261,4.1448c0,0-0.0483-0.0263-0.0483-0.0261
	c0.2599,1.8717,1.0101,3.5421,2.0835,5.0798c-0.0499,0.8392,0.1067,1.5964,0.8431,2.1235c0.1226,0.9016,0.243,1.8039,1.0887,2.3736
	c0.0568,3.0383,1.5197,5.6725,2.4318,8.4651c0.2971,0.9065,0.5941,1.8129,0.8911,2.7194c0.2239,1.5806,0.5682,3.1151,1.6685,4.3605
	c0.3624,0.7934,0.7249,1.5867,1.0872,2.3801l-0.1112,0.2493c0,0,0.23,0.1471,0.2301,0.1473
	c1.5433,3.7493,3.5245,7.2452,6.0306,10.4379c0,0,0.1305,0.3315,0.1306,0.3315c6.5112,11.0462,13.3003,21.8607,22.1077,31.3257
	c8.2826,8.901,16.2711,18.1014,21.6887,29.1544c2.8776,5.8705,6.4604,11.263,10.6825,16.2222
	c4.7793,5.6137,8.6077,11.7966,11.8992,18.3833c6.0989,12.2046,12.068,24.5017,20.6396,35.2651
	c5.6302,7.0696,12.0319,12.4902,22.0125,10.853c2.7432-0.4501,5.3617,0.4608,7.3341,2.4584
	c3.7793,3.8278,6.3047,8.5524,8.9246,13.1829c0.3527,0.6233,0.4253,2.142,0.1704,2.2603c-3.1532,1.4626-1.5037,4.0723-1.282,6.0125
	c1.1141,9.7509,2.5061,19.47,3.8004,29.2003c1.5192,19.9431,1.5081,39.8851-0.0454,59.8259
	c-0.0494,0.7625-0.0988,1.525-0.1482,2.2874c-0.6228,4.5734-1.2457,9.1468-1.8687,13.7202
	c-0.0928,0.6703-0.1855,1.3406-0.2784,2.0109c-1.0626,2.1885-1.2729,4.5695-1.5653,6.9319
	c-0.1626,0.9855-0.3251,1.971-0.4877,2.9565c-1.0961,1.8757-1.2567,3.9846-1.5132,6.0696
	c-5.0823,20.9213-10.6576,41.7592-10.8756,63.6041c5.7051-13.386,14.0255-25.397,19.3557-38.7016
	c3.699-9.233,8.7943-16.1238,17.3472-20.725c0.8698-0.3666,1.7394-0.7332,2.6091-1.0997l0.2865-0.0789
	c1.9261-0.6191,3.8523-1.2382,5.7784-1.8572c0.4377-0.0699,0.8754-0.1398,1.3131-0.2097c4.9226-0.5291,9.847-0.7288,14.7767-0.0896
	c0.7704,0.1132,1.5406,0.2264,2.311,0.3396c1.2133,0.4996,2.4265,0.9991,3.6398,1.4988c0.5488,0.2509,1.0977,0.5018,1.6465,0.7528
	c0.8042,0.4799,1.6085,0.9597,2.4127,1.4396c0.3312,0.1378,0.6625,0.2756,0.9937,0.4135c1.0773,1.1733,2.4095,1.7612,4.0051,1.745
	c0.3552,0.0665,0.7106,0.1331,1.0658,0.1995c8.3726,1.2328,16.8165,0.3914,25.212,0.8803c2.9132,0.1697,5.9828-0.7319,8.7057,1.0586
	c0,0,0.0564,0.0809,0.0563,0.0809c0.0359,3.2635,0.0717,6.5271,0.1074,9.7906c0.0001,0-0.045,0.1902-0.045,0.1902
	c-0.3108,0.9214-0.6217,1.843-0.9325,2.7644c-4.1985,11.7579-13.1818,16.7541-25.0084,18.1724
	c-3.7426,0.4489-7.4275,1.8291-10.9994,3.1581c-7.86,2.9244-9.8214,6.2656-9.1455,14.6982c0.1062,1.3253,0.121,2.6609,0.1134,3.9915
	c-0.0231,4.0793-0.1313,8.2053-4.6892,10.103c-4.3406,1.8071-7.2644-0.6766-9.9729-3.6162
	c-0.1329-0.1444-0.6031,0.022-0.9825,0.0482c-0.3129,1.4485-0.6216,2.9073-0.9434,4.3632
	c-3.5264,15.9582-5.2078,31.6543-2.866,48.3464c2.7643,19.7036-1.7532,38.4702-19.425,51.4009
	c-3.1257,2.2872-5.1058,5.567-6.4319,9.3099c-3.6746,10.371-6.9718,20.9375-8.5101,31.7522
	c-1.0928,7.6835-0.2094,15.813,4.1407,22.8185c7.616-6.0837,6.6566-14.3241,5.9843-22.553
	c3.3075,6.1582,3.8649,12.8947,5.5831,19.3071c-0.1471,3.0001,0.6073,5.8131,1.9451,9.6353c0-19.8844-0.0261-38.6755,0.0409-57.4663
	c0.0066-1.851-1.0516-4.0231,1.049-5.5199c1.4713,15.0518,2.8934,30.1089,4.5028,45.1459c0.1367,1.277,0.5892-1.3143,1.1317-0.3365
	c0.5427,0.9784,0.9298,2.098,1.13,3.2019c0.8309,4.5786,1.5819,9.1722,2.3248,13.7664c0.2217,1.3711,0.3704,2.6891,2.2556,2.629
	c2.09-0.0664,1.759-1.5762,1.7257-2.8618c-0.0732-2.8268-0.1552-5.6549-0.3169-8.4777c-0.5354-9.3365-1.1074-18.671-1.6654-28.0062
	c1.5353,3.0861,2.3794,6.2567,2.9088,9.4789c1.4553,8.8586,2.7806,17.7388,4.1517,26.6111
	c0.1492,0.9652-0.0242,2.2491,1.1104,2.5566c1.5833,0.4291,1.76-1.1104,2.2329-2.0931c1.5046-3.1267,2.9923-6.1648,2.9028-9.8716
	c-0.2042-8.4648-0.0645-16.938-0.0645-25.4078c0.4865-0.036,0.9728-0.072,1.4592-0.108c0.3575,1.7373,0.8745,3.4595,1.0426,5.215
	c0.4751,4.9651,0.8112,9.9435,1.1935,14.9172c0.1102,1.4344-0.287,3.4644,2.2788,1.8359c0.4001,0.4673,0.8004,0.9344,1.2006,1.4017
	c-1.0598,2.9647-2.4801,5.8647-3.0302,8.9211c-0.2823,1.5687-1.5322,4.499,2.2584,4.8409c3.5574,0.3212,4.1538-1.4968,4.1763-4.4304
	c0.0852-11.1582,0.2639-22.316,0.4836-33.4725c0.0315-1.6023-0.6405-3.4459,1.274-5.1765
	c2.4811,9.6914,2.8602,19.2733,3.8043,29.9731c1.8914-9.1993,1.809-17.6437,4.6368-24.8024c0,10.7031-0.0323,21.8485,0.0432,32.993
	c0.0089,1.309-0.9146,3.5315,1.1997,3.7303c2.7207,0.2559,1.7771-2.3392,1.8737-3.7117
	c0.7778-11.0663,1.4116-22.1426,2.0895-33.2157c0.1418-0.0212,0.2837-0.0424,0.4255-0.0635
	c0.5662,4.0372,1.1323,8.0745,1.8473,13.173c2.2892-9.3022,4.3347-17.6144,6.3802-25.9265
	c3.2291,0.6876,0.2266,3.2524,1.3755,4.5668c-0.2522,4.2836-1.9227,8.8146-0.1626,12.8076
	c4.0294,9.1405,5.7418,18.7227,6.8596,28.5026c0.1105,0.9669-0.0828,2.5284,0.9523,2.5938c2.967,0.1865,6.0332,0.2993,8.9229-0.2638
	c2.2928-0.4468,1.4177-3.0746,1.734-4.7184c1.0117-5.2589,1.0659-10.7393,3.8909-15.6041
	c0.415,5.4648,0.6045,10.8927,0.3448,16.2988c-0.158,3.2885,1.1167,3.9703,4.0669,3.6742c2.5759-0.2585,4.9122,0.1387,4.4542-3.9012
	c-0.7386-6.5159-0.9307-13.0935-1.3536-19.6451c3.1655,4.2054,3.6801,9.3054,5.7172,14.8622
	c3.5822-6.6538,6.9919-12.2826,12.7791-16.1627c-4.0577,5.5822-2.5967,10.7393,0.3402,15.9194
	c0.644,1.1359,0.8215,2.5264,1.343,3.7445c0.7059,1.6489,0.5801,4.7266,3.5566,3.4282c2.3524-1.026,1.3026-3.5083,0.6001-5.2385
	c-1.2224-3.0105-2.7974-5.8782-4.2581-8.8745c2.1072-0.8595,2.7429,2.3032,4.827,0.9384c0-4.4022,0-8.9491,0-13.496
	c1.5459,4.7927,2.4958,9.6421,3.0438,14.5364c0.4003,3.5769,1.66,6.6434,3.4583,9.7329c1.7889,3.0735,4.3362,1.972,6.593,1.7782
	c2.9579-0.2538,1.6846-2.7598,1.6064-4.3417c-0.2955-5.9819-0.7711-11.9552-1.1792-17.9316
	c0.3469-0.2842,0.6938-0.5682,1.0409-0.8523c3.2946,7.0847,3.8563,15.0349,6.2601,22.4016c0.3973-0.0758,0.7947-0.1515,1.192-0.2273
	c0-13.5907,0-27.1814,0-40.7721c0.9163,0.5334,1.0455,1.1332,1.1655,1.7347c2.3785,11.9163,4.1257,23.9269,5.4535,36.0033
	c0.1151,1.047-0.2297,2.7388,1.2437,2.8918c1.8765,0.1948,1.7966-1.6807,1.9657-2.88c0.8627-6.114,1.5228-12.4852,4.5399-17.7969
	c4.4362-7.8104,3.8943-15.8583,3.2408-24.1296c-0.5214-6.5991-0.9795-13.2031-1.4656-19.8051
	c5.0835,12.8237,7.3502,26.2432,9.7252,40.8358c1.8182-4.0073,0.5883-7.496,2.9706-10.366
	c-0.0663,9.9194-0.0787,19.4114,0.9904,28.8547c0.1718,1.517-0.8488,4.2505,2.2783,3.9268c2.9291-0.3033,1.657-2.7815,1.6716-4.3634
	c0.0823-8.9053,0.0397-17.8118,0.0397-26.5571c1.9006,4.5837,2.5399,9.8304,3.744,14.9183
	c0.3337,3.4003,0.6675,6.8005,1.0012,10.2009c0.3273,0.0005,0.6544,0.001,0.9817,0.0016c0.3116-4.6824,0.6234-9.3646,0.9351-14.047
	c1.275-5.5045,1.2281-11.3413,4.2723-16.4927c0.5392,10.626,0.6012,21.2032,0.4994,31.7789
	c-0.0283,2.9485,0.728,4.0938,3.9985,3.8428c2.9796-0.2286,3.9127-1.058,3.9431-4.1117c0.0812-8.1821,0.8043-16.3315,2.8826-24.335
	c0.5035,0.5831,0.6195,1.1541,0.6351,1.7277c0.2061,7.6494,0.4298,15.2988,0.5779,22.9496c0.0577,2.9806,1.6987,4.5563,3.8438,2.385
	c2.46-2.4897,4.9995-5.1326,6.1682-8.8452c2.8989-9.21-4.7225-16.0068-5.2017-24.3903c-0.0208-0.3654-0.6428-0.7389-1.0403-1.0339
	c-5.4944-4.0787-6.2963-9.824-5.7042-16.0558c0.0881-0.9271-0.4288-2.1411,0.7094-2.6674c1.0504-0.4857,1.9163,0.3489,2.6388,0.9675
	c3.1764,2.7194,5.6857,5.8903,7.7638,9.61c1.9729,3.5311,3.9116-1.0841,6.0483-0.7722c0.0383-0.2708,0.0768-0.5414,0.1238-0.8716
	c-1.2098-0.343-2.4249-0.6876-3.6777-1.0428c0.3741-1.4305,2.6721-0.5817,2.2815-2.1678c-0.381-1.5471-2.5021-0.1451-3.2112-1.4169
	c1.1196-0.6869,2.2074-1.3544,3.8539-2.3644c-1.764-0.5898-2.8618-0.9569-4.205-1.4059c3.9479-1.9246,4.3627-4.6064,1.3792-6.8129
	c-0.0297-0.3409-0.0593-0.682-0.0889-1.0229c1.1245,0.2189,2.7378,1.5229,3.2286,0.0148c0.4094-1.2583-1.3044-2.3125-2.5338-3.0631
	l-0.017,0.2266c1.408,0.1639,2.8158,0.3278,4.1985,0.4886c0.6184-1.6387-1.0294-2.0702-1.4633-3.8384
	c3.1295,3.4216,2.5762-2.1299,5.3693-1.4678c1.7375,0.412,4.6835-1.2744,3.9296-4.7137c0.6543,1.1155,1.3086,2.2311,2.1068,3.5919
	c1.2045-3.1105,3.8293-3.9503,6.4423-2.6846c2.8893,1.3997,1.3278-1.623,2.3762-2.4535c0.5708,1.3275,0.4042,3.0469,1.7845,3.8356
	c0.9535-0.8913,1.9725-1.6747,2.745-2.6529c0.2922-0.3702,0.1168-1.2227-0.0645-1.7847c-0.0546-0.1692-0.8999-0.2476-1.2909-0.1085
	c-0.7469,0.2657-0.8892,0.9299-0.5203,1.5964c0.5483,0.9909,1.1091,2.7067,1.774,2.7604c1.8032,0.1458,2.5145-1.6521,3.3595-3
	l-0.2184-0.0056c-0.4249,1.6794-0.8497,3.3589-1.2344,4.8793c2.1925,0.9941,2.4564-2.8693,4.5192-1.0152
	c-0.6516,0.8035-2.0809,1.7326-1.1338,2.6498c1.0328,1.0002,1.6909-0.6036,2.4023-1.2734c0.4744,0.0322,1.1991-0.433,0.9209,0.7504
	c-0.2786,1.1848-3.5371,4.2137,1.4479,2.7264c0.9523-0.2841,0.6085,0.501,0.3051,0.7395c-2.4388,1.9159-0.1827,2.9791,0.9474,3.4878
	c3.3577,1.5111,3.1132,2.8055-0.2888,4.1678c4.9882,2.2352,5.1274,3.7914,0.9197,8.0524c1.3945,0.2048,2.6256,0.3857,3.9835,0.5852
	c-1.2124,0.9937-2.9929,0.7865-3.8313,2.4725c1.8217,0.0398,2.0974,3.2695,4.4763,1.8368c0.1401-0.0845,0.0264-1.0927-0.2212-1.236
	c-1.4114-0.8167-2.8146,0.2047-3.6199,0.8708c-2.5055,2.0729,1.756,1.894,1.3318,3.5842c-0.7905-0.1542-1.7588-0.6787-2.3606-0.4031
	c-2.8695,1.3138,2.0887,3.4288,0.3011,3.3051c-5.6951-0.3949-0.7195,1.7192-0.7908,2.5553
	c-0.0227,0.2656-0.0419,0.5315-0.0605,0.7684c-1.4811,0.3365-2.6775-1.4613-4.2408-0.528
	c-0.8306,0.4756,3.9708,4.7548-1.5104,2.2828c-0.8671-0.3911-0.5148,1.3529,0.2134,2.0524l-0.1499-0.0796
	c-1.9244-0.6563-2.5887,0.7903-3.944,1.6664c-3.3562,2.1694-4.441,2.16-4.1345,4.6738c0.8524,6.9904,1.91,13.9558,3.0364,22.001
	c4.0942-5.6339,6.8074-10.958,12.3755-14.7498c-1.3124,3.6295-3.2793,6.5789-3.1429,9.4276c0.124,2.59,1.4238,6.5961,5.9453,4.7628
	c0.8137-1.8035-1.8745-2.7828-0.8839-4.5377c1.458-0.0221,2.0125,1.9193,3.8776,1.3812c0-4.9974,0-10.0475,0-15.0974
	c1.3636,3.6742,1.9623,7.4072,2.5459,11.1427c1.1462,7.3354,1.1339,7.2162,8.5764,6.6725c2.5427-0.1858,3.5692-0.9052,3.2585-3.5476
	c-0.4332-3.6865-0.6123-7.4031-0.9788-12.1162c3.1949,4.0516,2.7255,8.4232,5.1219,11.6625
	c0.8059,1.0895-0.8746,4.0682,2.4039,3.3291c2.7201-0.613,1.5569-3.028,1.5594-4.5955c0.022-13.4905-0.1331-26.9814-0.1692-40.4723
	c-0.0028-1.0714-0.8151-2.4167,0.777-3.3827c2.4976,15.4519,4.1937,30.8848,5.8605,47.2223
	c0.3134-1.524,0.2319-2.4481,0.6071-2.7045c1.1072-0.7568,0.7595,0.5415,0.8057,0.8546c0.4935,3.3585,3.0016,2.4429,5.0331,2.3711
	c3.1191-0.11,2.0315-2.5299,1.958-4.0979c-0.2723-5.8114-0.734-11.614-1.1244-17.4199c2.9148,5.6917,3.9697,11.7455,4.8715,17.7589
	c0.7889,5.2617,4.3562,2.5607,6.8105,2.9827c2.7935,0.4803,3.7837-0.9004,3.7037-3.6829
	c-0.1544-5.3795-0.0452-10.7667-0.0452-16.1508c0.5546-0.0093,1.1091-0.0186,1.6636-0.0278
	c0.6077,5.0757,1.2667,10.1461,1.8,15.2297c0.2458,2.3441-0.1021,4.6331,3.7162,4.1084c3.1383-0.4314,5.0844-0.6497,4.8372-4.7714
	c-0.4315-7.1979-0.1201-14.4402-0.1201-21.6639c0.4215-0.0411,0.8429-0.0824,1.2644-0.1235
	c2.869,8.2828,2.933,17.1887,4.9214,25.764c2.3346-6.8953,2.4275-14.2412,5.6523-21.2218c0,6.1188-0.0726,11.7059,0.0535,17.2887
	c0.0298,1.3204-1.2706,3.5975,1.775,3.6179c2.5215,0.017,2.4066-1.7219,2.4077-3.4166c0.0039-6.1854,0.0013-12.3708,0.0013-18.5563
	c0.3308-0.027,0.6616-0.0538,0.9923-0.0808c0.7986,4.8823,1.597,9.7648,2.428,14.8452c1.486-0.9502,1.3375-2.0342,1.516-2.9791
	c1.5128-8.015,4.1089-15.7163,6.455-23.5034c0.671-2.2275,4.1288-2.8444,2.8258-5.7709l0.0757-0.1578
	c-3.1569,1.2029-0.6183,3.6969-1.1034,5.5557c-2.7417,10.5035-1.764,20.7484,3.3054,30.543
	c0.9052,1.7488,1.4104,2.9276,3.4924,1.8413c1.4922-6.1819,0.1691-12.4648,0.7056-18.6722
	c0.1168-1.3516-1.3424-3.3715,1.1992-4.0657c0,102.6455-0.0189,205.2909,0.0858,307.9363c0.0033,3.2839-0.4667,4.1654-4.0206,4.1648
	c-637.3684-0.1051-1274.7368-0.105-1912.1052-0.0029c-3.5024,0.0006-4.0576-0.798-4.0509-4.1366
	C1.0332,1308.3079,1,1246.6539,1,1185z M1249.1459,882.9441c0.5857-0.9716,1.1714-1.9432,1.7571-2.9149
	c0,0,0.09-0.2192,0.0901-0.2191c0.5527-0.926,1.1055-1.8519,1.6582-2.7779c0.1526-0.3497,0.3052-0.6993,0.4578-1.049
	c0.9374-0.7632,1.4998-1.7445,1.7046-2.9334c0.8165-1.5529,1.6331-3.1057,2.4497-4.6584c0.9784-0.8883,1.6079-1.9631,1.7603-3.2929
	l0.0588-0.1248c1.1139-1.0415,1.7544-2.3279,1.9808-3.8286l0.0687-0.1281c1.0435-0.6786,1.3043-1.7882,1.589-2.8847
	c1.8173-2.8468,3.3198-5.8466,4.4009-9.0514c1.1431-1.0675,1.739-2.4023,1.9236-3.938l0.0714-0.1589
	c1.0986-1.0685,1.6616-2.3942,1.8677-3.8912c0.7413-1.6174,1.4827-3.2347,2.2239-4.8521c0.4884-0.9833,0.9767-1.9666,1.4651-2.9498
	c0.7743-1.8615,1.5485-3.7229,2.3228-5.5844c0.7209-0.7157,1.1604-1.5507,1.1014-2.5972
	c8.4098-17.6188,14.5167-35.7993,12.9728-55.7079c-0.9037-11.6526,1.6326-22.4893,7.0624-32.724
	c11.8081-22.2578,22.0646-45.0626,27.3052-69.9443c1.9869-9.4338,1.7126-18.1934-2.7866-26.6393
	c-6.9055-12.963-12.0093-26.7036-17.6593-40.2062c-5.2351-12.511-10.2183-25.1274-15.5167-38.2017
	c-11.4624,13.4011-23.2576,26.0189-30.3889,41.8174c-10.1028,22.3817-22.9222,42.7733-40.2484,60.3021
	c-12.3241,12.4681-21.1183,27.2784-28.0802,43.324c-5.3763,12.391-11.8068,23.9033-22.5718,33.0334
	c-7.2289,6.1309-14.1034,10.2938-23.6464,8.9733c-3.1753-0.4395-4.6534,1.0491-5.7739,4.0325
	c-3.2233,8.5815-5.8657,17.3114-8.2776,26.1531c-9.5753,35.1031-12.2983,70.7532-9.0773,106.925
	c0.7209,11.0762,1.5818,22.1422,0.8123,33.2632c-0.4688,6.7733-0.6628,13.5656-0.9802,20.3494
	c-0.0758,1.1424-0.1516,2.2847-0.2274,3.4271c-0.5795,4.8422-1.1589,9.6844-1.7384,14.5266
	c-0.0847,0.8484-0.1694,1.6968-0.2542,2.5452c-0.5763,3.1553-1.1525,6.3106-1.7288,9.4659
	c-0.7643,3.8477-1.5286,7.6953-2.2927,11.543c-1.9126,7.3538-3.8252,14.7076-5.7377,22.0615
	c3.9626-5.5313,4.5079-12.2471,6.6843-18.3881c4.8425-11.8499,14.2555-15.7227,26.2715-15.0521
	c1.2201,0.2617,2.4402,0.5234,3.6603,0.785c2.6814,1.3085,5.6343,2.2482,7.9982,3.9881
	c11.2112,8.2512,19.2924,19.0893,25.2816,31.5653c0.8445,1.759,0.7931,3.4826,0.0641,5.2973
	c-3.106,7.7314-12.0464,12.7939-20.0594,11.0743c-2.5756-0.5527-5.0206-1.7142-7.5249-2.5988
	c-6.1095-2.1583-11.363-1.1353-15.7832,3.88c-3.9097,4.4361-6.5879,9.5543-8.9135,14.9036
	c-4.4545,10.2463-5.9171,21.6216-10.4775,31.6367c-8.6974,19.0997-3.8473,38.2054-2.4205,57.41
	c0.0725,0.9772,0.1978,2.1907,1.5787,1.9807c0.9531-0.1448,1.0302-1.1918,1.0358-2.0203c0.0267-3.9757,0.5789-7.9626-0.2202-11.9231
	c2.73,2.0367,0.5062,5.9309,3.2523,8.6635c0.3079-3.4928,0.5641-6.4011,0.8203-9.3094c2.0167-10.3995,3.4613-20.9335,7.0443-30.964
	c-0.3315,9.3384-0.7604,18.6356-1.4456,27.9141c-0.3636,4.9269,0.6742,9.3315,2.5361,13.9347
	c1.6313,4.0326,4.266,2.6525,6.8575,2.8531c3.4539,0.2676,2.978-2.425,3.3094-4.3752c0.8834-5.198,1.636-10.4181,2.4406-15.6293
	c0.6161,5.2598,0.5615,10.4103,0.6528,15.5583c0.0242,1.358-0.7915,3.4072,1.0343,3.8835c1.6298,0.425,3.6523,0.5072,5.1685-0.8745
	c0.3578-0.3262,0.524-0.8538,0.849-1.2272c0.2999-0.3444,0.4619-0.5111,0.9202,0.1042c2.2368,3.0043,2.1354,0.5112,2.4653-1.0958
	c0.9078-4.4207,0.671-9.1248,3.5089-14.5647c0,5.0244-0.2014,8.651,0.0912,12.2372c0.132,1.6188-1.4779,4.4364,1.8439,4.713
	c3.2921,0.2745,2.9404-2.3887,3.1193-4.4968c2.0636,0.4812-0.1331,3.1935,2.5217,3.9257
	c-1.1931-5.9659,0.4921-11.897-2.2017-17.4185c-0.9452-1.9346-1.7573-3.9487-2.8588-5.7898
	c-4.8931-8.1792-4.5745-16.4108-0.5629-24.7922c2.7509-5.7472,6.5264-10.8221,10.1659-15.9954
	c4.2209-5.9998,8.5645-12.0052,10.269-19.276c4.7075-20.0807,9.2152-40.2083,13.802-60.3174c0.1783-0.463,0.3568-0.926,0.5352-1.389
	c0.8204-2.834,1.6409-5.668,2.4613-8.502c0.7289-0.7433,1.1078-1.6187,1.0095-2.6742c0.3839-0.9912,0.7678-1.9824,1.1516-2.9736
	c1.05-1.1211,1.5164-2.5024,1.7728-3.9772c1.3746-2.7167,2.7491-5.4334,4.1237-8.1501c0.9655-0.728,1.427-1.7519,1.6965-2.8885
	c0.285-0.2054,0.4155-0.4834,0.3916-0.8339c0.9856-0.7953,1.6537-1.7859,1.8748-3.051l0.1147-0.2032
	c0.97-0.7148,1.5665-1.6652,1.7959-2.8473c0.7874-1.2141,1.5747-2.4283,2.3621-3.6425c0.5432-0.7966,1.0865-1.5932,1.6299-2.3898
	c0.7104-1.0662,1.4209-2.1323,2.1315-3.1984c1.0674-0.6399,1.5798-1.6592,1.9141-2.8002c0.7079-1.0508,1.4156-2.1017,2.1234-3.1527
	c0.3749-0.5633,0.7498-1.1266,1.1246-1.6898c1.2716-1.204,2.2776-2.5881,2.8796-4.2462c0.4678-0.6473,0.9357-1.2947,1.4036-1.9421
	c0.1898-0.3465,0.3795-0.6931,0.5693-1.0396c1.0272-0.7133,1.6664-1.681,1.9072-2.9098l0.0999-0.1664
	c0.4491-0.6332,0.8983-1.2665,1.3474-1.8997c0.8574-1.369,1.7148-2.738,2.5723-4.1069c1.089-0.6671,1.6139-1.7003,1.8826-2.8998
	c0.767-1.257,1.5341-2.5139,2.301-3.7708c1.0607-0.7989,1.6735-1.8753,1.9561-3.1563c1.0435-0.785,1.5905-1.8768,1.9185-3.1041
	c0.9781-0.7617,1.6083-1.7365,1.8175-2.9688c0.2424-0.0904,0.3514-0.2644,0.3268-0.5221c0.5015-0.7962,1.0029-1.5924,1.5045-2.3885
	c1.5101-2.6242,3.0204-5.2484,4.5305-7.8727c0.9601-0.8211,1.6271-1.8094,1.7678-3.098
	C1249.0404,883.1731,1249.1458,882.944,1249.1459,882.9441z M1297.9453,971.238l0.2351-0.2975
	c5.5598-3.1358,11.1526-0.2938,16.7308-0.0925c1.8202,0.5742,3.6047,1.3243,5.5804,1.132c1.0033,0.7182,2.1215,0.9541,3.334,0.7939
	c0.7391,0.1179,1.4783,0.2358,2.2174,0.3537c2.4852,1.102,5.0927,1.6583,7.8047,1.7473c0.6477,0.11,1.2955,0.22,1.9432,0.3301
	c3.588,1.2531,7.2772,1.8378,11.0792,1.678c3.7594,0.5051,7.5161,0.5178,11.2693-0.0645c2.2201,0.2578,4.3412-0.2431,6.4495-0.8417
	c2.3075-0.2874,4.6102-0.7562,6.9238-0.8192c3.3618-0.0917,3.6228-1.4351,2.8057-4.4352
	c-2.4558-9.0171-4.2142-18.2356-4.2068-27.5934c0.0142-17.7841-2.9359-35.1405-6.5906-52.444
	c-4.649-22.012-9.2526-44.041-7.6257-66.7776c0.0142-0.1982-0.3674-0.4249-0.8264-0.9226
	c-3.3695,1.5219-5.7836,4.2758-7.7836,7.2792c-3.5959,5.3998-6.9736,10.9489-10.3279,16.5048
	c-3.5253,5.8393-6.1748,12.2686-10.574,17.507c-9.899,11.7878-18.444,24.5057-25.9601,37.8644
	c-8.3101,14.7698-18.4556,27.5715-33.1703,36.5229c-5.988,3.6426-11.1675,8.5481-14.4574,14.9312
	c-12.8893,25.0082-26.1333,49.849-38.3513,75.1832c-9.9546,20.6411-15.9784,42.396-12.5591,65.77
	c0.2684,1.8347,0.4233,3.6842,2.1727,5.8893c0-4.3389,0-7.8427,0-12.0034c4.0288,11.137,1.2644,23.2234,7.6683,32.7675
	c10.1544-19.2273,8.4237-39.4508,5.8221-59.8087c4.64,13.6215,6.8795,27.7489,8.8162,42.2856
	c1.7365-2.6912,1.1554-5.5873,2.806-7.984c0.6167,8.0245,0.5494,16.0125,0.6803,23.9972c0.0229,1.3939-0.908,3.9023,1.6858,3.9246
	c3.0701,0.0264,1.7887-2.6238,1.8076-4.1836c0.0934-7.7214,0.0426-15.4446,0.0426-23.8241
	c3.0358,8.2657,2.9827,16.5923,5.0671,24.4543c0.765-9.6289,1.4272-19.1842,4.5687-28.4645
	c0.7454,8.9116,0.6917,17.7977,0.7861,26.6821c0.0215,2.0259-1.1031,4.8002,3.0492,4.704c3.5026-0.0812,4.0563-1.6276,4.0818-4.6033
	c0.0577-6.7516,0.5168-13.4877,2.6403-20.0521c0.6366,6.7571,0.5951,13.4885,0.6714,20.2186
	c0.0153,1.3528-0.5737,3.3557,1.5869,3.6155c1.7445,0.2098,3.7031,0.4335,5.0343-1.3604c1.2023-1.62,1.9818-3.3129,2.395-5.3698
	c1.2761-6.3523,1.5792-12.9468,4.2811-18.9801c-0.1583,7.1893-0.5969,14.3291-0.9562,21.4728
	c-0.0673,1.3374-1.069,3.2773,1.2186,3.6794c2.3097,0.4059,2.5879-1.6208,3.0203-3.1952
	c1.6765-6.1058,3.7661-12.2765,3.7186-18.5585c-0.0569-7.5388,3.6833-11.3484,9.8612-14.4873
	c13.0431-6.627,24.6251-15.3558,33.9344-26.7115c7.051-8.6011,12.967-17.8317,11.5116-29.8766
	c-0.2281-1.8875,0.3846-3.9768,0.993-5.8478c2.7776-8.5439,5.4585-17.1445,9.3586-25.2554c1.5198-3.1605,0.943-5.1954-1.6217-7.3487
	c-4.9231-4.1331-10.9961-5.3414-16.8644-7.1566c-7.9033-2.4447-16.3691-3.3075-23.4014-8.2314
	C1298.1963,973.7029,1298.0708,972.4705,1297.9453,971.238z M564.709,1154.7267c0.311,0.2529,0.6219,0.5059,0.9328,0.7588
	c0.0112,0.3297-0.0228,0.6683,0.0411,0.9875c0.3005,1.5028-1.8686,3.8131,1.1658,4.3966c2.9268,0.5627,2.9677-1.7133,3.2496-3.7515
	c0.6201-4.4823-1.7282-13.8265-5.2646-19.7367c-0.9122,6.7394-1.7587,12.9939-2.6104,19.286
	C563.8793,1156.5793,563.8606,1155.204,564.709,1154.7267z M1776.3492,1061.2235c0.0186,2.1036,0.0372,4.2073,0.0559,6.3109
	c-0.0172,5.2249,4.8436,1.6078,6.7161,3.8872c-0.5116,1.1685-1.1992,2.4677-1.6592,3.8431
	c-1.0742,3.2131,0.1061,6.1056,3.0835,6.903c4.2809,1.1465,4.1959,3.5983,3.4006,6.8535c-0.5067,2.0737-0.3048,3.8989,2.4956,3.2939
	c1.9797-0.4279,5.573,1.5354,5.1639-3.0818c-0.4081-4.6061-0.5161-9.1742-0.2351-13.8444c0.236-3.9202,0.0869-8.2585-1.6805-12.1381
	c-1.7563,0.672-0.4852,2.5751-1.4868,3.6979c-1.4875-3.3188-4.1368-4.144-5.8036-2.046l-0.0007,0.0123
	c-1.6367-0.6099-0.2573-4.0918-1.3945-3.163c-2.4607,2.0096-3.5056-4.2977-5.4369-0.4584
	c-0.1798-0.1775-0.5321-0.3756-0.5139-0.5297c0.3304-2.7875-1.4152-4.5328-2.8531-6.6136c-1.063-1.538-1.8925-2.6937-3.7219-2.6222
	c-2.7279,0.1067-1.2947,2.1035-1.5482,3.2603C1769.9598,1059.2164,1772.7313,1060.6005,1776.3492,1061.2235z M1298.1589,1110.9946
	c0.3617,0.4081,0.7235,0.816,1.0854,1.224c-0.2498,0.9585-0.4215,1.9462-0.7673,2.8687c-0.5365,1.4305-1.1852,2.8441,0.1388,4.1626
	c2.3026,2.2932,4.475-2.3995,6.9209-0.2478c0.083,0.0731,0.4421-1.7356,0.45-2.6912c0.0282-3.4623,0.0111-6.925,0.0111-10.3876
	c1.3235,3.2349,1.8832,6.4832,2.2429,9.7535c0.2778,2.5247,1.1323,3.6763,4.0391,3.538c6.2769-0.2986,6.2657-0.1039,5.9519-6.2131
	c-0.087-1.6936-0.0134-3.3955-0.0134-5.0938c1.5167,2.5239,2.2185,5.2048,3.0066,7.8604c0.4645,1.5649,1.5989,2.6334,3.2261,2.5795
	c2.0621-0.0684,1.5096-1.8457,1.5144-3.0544c0.0264-6.826-0.0637-13.6527-0.0111-20.4784c0.0186-2.4047-0.4845-3.1836-3.1666-2.4086
	c-12.5175,3.6173-22.6062,11.0214-31.8331,19.854c-1.2388,1.1858-1.9988,2.6621-2.3514,4.3224
	c-0.2723,1.282-1.8538,2.9199,0.3087,3.7355c1.4413,0.5435,2.7972-0.193,3.6995-1.7496
	C1294.1826,1115.8574,1295.6082,1113.0026,1298.1589,1110.9946z M1512.7981,1084.8619c0.1479,0.1025,0.2935,0.2084,0.4364,0.3175
	c0.1146,2.5026,0.2291,5.0051,0.3436,7.5077c2.0491-3.8965,1.4543-8.4095,3.4557-12.243c1.6447,0.4868,0.0826,2.5188,1.663,3.0889
	c3.9108-9.7386,5.4872-19.8845,5.9608-30.241c0.2173-4.7529-1.483-7.7787-6.7523-8.6599
	c-7.3718-1.2328-14.6683-2.9707-21.9432-4.7163c-10.8424-2.6017-21.7161-5.033-32.7246-6.817
	c-1.623-0.2631-3.9944-1.2123-3.0834,2.2745c2.9147,11.1552,4.7383,22.5242,6.2335,34.2373
	c2.0347-2.1134,0.8406-4.8378,2.5157-7.0732c0.4844,16.1139,0.9889,31.8407,4.0277,47.37
	c1.6252-15.7463-0.2762-31.472,0.4591-47.2341c3.1129,7.7136,3.2474,16.0432,5.0935,24.0238
	c0.8827-9.7461,1.3817-19.494,4.4657-28.8738c0.5872,1.6824,0.5548,3.3107,0.5924,4.9375
	c0.3158,13.6514,0.5313,27.3073,1.0968,40.9484c0.0811,1.9557-1.8408,5.9106,3.1602,5.6222
	c4.5244-0.2611,2.454-3.5894,2.5605-5.5792c0.4269-7.9796,0.3868-15.9846,0.8351-23.9625
	c0.3112-5.5365,0.5018-11.1423,2.3787-16.4814c0.5128,10.6471,0.4067,21.2931,1.4755,31.4221
	c10.1219-8.2202,8.5448-21.0054,12.4044-31.7512c-0.3942,13.8899-1.0968,27.6782-1.6711,41.4719
	c-0.0513,1.231-1.1622,3.3915,1.1791,3.6512c2.2542,0.25,1.7827-1.8967,2.0435-3.2615
	C1510.2761,1098.1825,1510.6063,1091.3456,1512.7981,1084.8619z M1387.2965,1089.7638c-1.0984,7.4344-1.6727,14.7888,3.4131,21.5211
	c1.145-11.038,1.0931-22.0677,4.7168-32.5502c0.517,1.1765,0.5073,2.3015,0.5184,3.4263
	c0.0963,9.6598,0.1826,19.3199,0.3127,28.9792c0.0166,1.23-0.4653,2.8135,1.5366,3.1276c2.0385,0.3199,2.5732-0.9969,2.8872-2.5957
	c0.4818-2.4541,0.8287-4.8026-0.1526-7.3315c-1.4736-3.798-2.2795-7.9553,0.1776-11.5439c2.4954-3.6447,2.406-7.4312,2.0292-11.4276
	c-0.2277-2.4158-0.3907-4.8374-0.6656-8.2993c2.7494,3.9615,2.442,7.9315,4.3969,11.3767c3.3146-3.1592,4.926-6.4451,4.0306-11.1403
	c-2.3848-12.506-7.0507-24.243-11.4309-36.0969c-0.9153-2.4771-1.9875-2.4298-4.0492-1.4025
	c-8.8439,4.4066-15.637,10.693-21.2208,19.0436c-10.4792,15.6719-22.709,29.7289-42.2137,34.6128
	c-2.1372,0.535-2.9208,1.6111-2.647,3.8943c0.8724,7.2736,1.5699,14.5685,2.2982,21.8588c0.325,3.2512,2.7491,2.5574,4.8035,2.6978
	c2.4852,0.1698,3.136-1.0099,2.942-3.3224c-0.4399-5.2472-0.7051-10.509-1.0413-15.7649c2.017,4.9797,3.356,10.0862,3.8766,15.275
	c0.4619,4.6051,3.4542,2.8326,5.8011,3.0365c2.7544,0.2393,4.4067-0.4043,4.2238-3.7501
	c-0.2415-4.4171-0.0594-8.8572-0.0594-13.2875c2.3569,4.0547,2.3734,8.4135,2.5442,12.6656
	c0.1508,3.7467,1.7817,4.2324,5.0338,3.8831c3.0365-0.3263,2.8013-2.1595,2.7987-4.1769
	c-0.0074-6.1481-0.0027-12.2961-0.0027-18.4442c0.4437,0.0059,0.8873,0.0116,1.3311,0.0175
	c2.4707,7.0542,1.8274,14.7524,4.2773,21.9543c1.9916-5.9698,2.1603-12.2871,4.9058-18.675c0,5.4246-0.0776,10.0483,0.0477,14.6665
	c0.0371,1.3651-1.2723,3.7405,1.6785,3.714c2.6012-0.0233,2.0015-2.2821,2.0439-3.7695c0.1221-4.2861,0.0431-8.578,0.0431-12.8676
	c0.3813-0.0168,0.7628-0.0336,1.1442-0.0504c0.572,4.0634,1.144,8.1266,1.8344,13.0309c2.3146-9.4418,4.4359-18.0953,6.5552-26.7393
	C1388.7424,1086.1328,1386.4513,1088.3993,1387.2965,1089.7638z M1019.0414,1093.7874c1.7209,1.1699,0.9557,2.947,0.9913,4.4609
	c0.1068,4.537,0.0631,9.0773,0.0782,13.6163c-0.0592,6.8212-0.1481,13.6423-0.149,20.4635
	c-0.0002,1.1639-0.6836,2.9536,1.4988,2.9968c1.5823,0.0311,3.2468,0.3198,3.9164-2.0278c0.5002-1.7537,0.3618-3.9438,2.5389-5.3837
	c-0.4194,4.1586-1.4688,8.8085,5.3027,6.7804c1.3674,0.1895,2.7382,0.4043,3.9626-0.5122c1.63-3.3671,1.3235-7.193,2.563-10.6824
	c0.2124,2.6805,0.332,5.3472,0.1753,7.9976c-0.1307,2.2125,0.717,2.6726,2.8506,2.8185c4.6278,0.3168,3.0103-2.6129,2.2189-6.2324
	c5.1074,6.9941,10.2091,7.4529,15.906,3.2819c0.1714-0.1255,0.6079-0.1263,0.7668,0.0034
	c4.8914,3.9894,10.2194,0.2405,15.3094,0.8379c2.3876,0.2802,1.889-1.7826,1.8043-3.1948
	c-0.2241-3.7346-0.528-7.4645-0.8002-11.1962c2.386,3.6935,2.7203,7.8397,3.4342,11.8688c0.4015,2.266,1.7258,2.4572,3.5742,2.2859
	c1.5616-0.1447,1.8368-0.8185,1.6187-2.3c-1.9573-13.2965-2.319-26.7815-4.7693-40.0276c-0.7058-3.8154-1.7893-6.2184-6.525-6.3201
	c-10.922-0.2343-19.8397-4.9948-26.6071-13.6262c-2.4628-3.141-4.7601-6.4155-7.2958-9.495
	c-3.9176-4.7581-7.7412-5.3125-14.844-2.881c-5.1722,1.7705-8.1426,4.5885-7.545,10.5957
	c0.3572,3.5898-0.0864,7.3213-0.6104,10.9252c-1.7069,11.739-8.4879,20.8129-16.1097,29.2953
	c-6.3245,7.0386-10.0125,14.7965-8.2501,24.4648c0.3063,1.6803-1.0235,4.7157,2.4133,4.1914
	c2.7769-0.4237,6.9618,1.9897,7.7511-3.597c0.6568-4.6486,1.1289-9.443,3.3832-13.7377c0.0142,4.3752-0.3557,8.6816-0.5277,12.9962
	c-0.0623,1.5614-1.0495,4.0979,2.2453,3.6169c2.2033-0.3217,5.2178,0.9774,5.6162-3.0803
	C1016.2122,1119.9142,1017.6579,1106.8538,1019.0414,1093.7874z M1421.4939,614.4475c-4.2369,8.2798-6.9066,16.5101-7.4663,25.1683
	c-1.8184,28.1241-1.4647,56.2966-0.3427,84.4224c1.0239,25.6669,6.3547,50.8692,9.7573,76.2801
	c0.1964,1.4658,1.1749,3.3723,0.0409,4.3192c-3.7334,3.1175-3.6261,7.4404-3.6799,11.446
	c-0.2604,19.3398-2.1661,38.5372-4.22,57.7419c-0.6571,6.143-0.146,12.4244,2.4149,18.1592
	c2.2579,5.0561,2.097,10.0027,0.7358,15.112c-4.9086,18.4227-2.7529,36.634,1.5941,54.7881
	c0.5002,2.0891,1.286,2.9213,3.7738,2.4084c31.0004-6.3914,61.7592-13.637,91.4562-24.8253
	c2.7914-1.0517,5.6354-2.533,8.5059-2.6598c3.5353-0.1561,3.8799-1.6846,4.043-4.5961c1.1381-20.3083,3.2479-40.4594,8.7285-60.1773
	c9.9664-35.8571,13.296-72.2911,8.8323-109.3591c-0.535-4.4427-0.7865-8.0727-6.4124-9.084
	c-3.1536-0.5669-5.679-3.3387-8.1854-5.5466c-8.2798-7.2936-15.7604-15.3765-22.2201-24.2781
	c-13.7339-18.9255-28.8198-36.6628-45.5737-52.9536c-12.2673-11.9283-22.5933-25.3317-31.5254-39.8699
	C1428.4531,625.5761,1425.0997,620.2429,1421.4939,614.4475z M1453.8804,1083.4222c0.885-7.1617,5.337-12.8114,5.7021-19.0586
	c0.569-9.7373-0.7848-19.5844-1.2668-29.3878c-0.0986-2.0048-0.8757-2.9286-2.9788-3.1042
	c-6.1322-0.5123-12.2581-1.1355-18.3679-1.8688c-2.8842-0.3461-3.5154,0.6199-2.6992,3.2882
	c1.7493,5.72,3.21,11.5305,5.0508,17.2192c1.1273,3.484,1.9038,7.1827,4.2126,10.3933c1.0287-2.1649-0.4712-4.2643,1.0685-6.5604
	C1446.2792,1064.4673,1446.8197,1074.5345,1453.8804,1083.4222z M414.9496,1134.9863c-6.9159,3.3746-3.6512,11.1022-8.0668,14.9182
	c-0.1057,0.0913,0.1281,0.62,0.2515,0.9252c2.145,5.304,3.7312,10.7653,4.6416,16.4181c0.1584,0.9833,0.2423,2.071,1.6057,2.0765
	c1.7678,0.0072,1.5664-1.3149,1.5667-2.4646C414.9506,1156.4486,414.9496,1146.0375,414.9496,1134.9863z M406.8732,1154.6372
	c-5.7974,1.3844-10.0943,8.314-8.6356,13.4829c0.2831,1.0032,0.5541,1.7352,1.7398,2.0565
	c4.1137,1.1146,7.8892-1.4888,7.7927-5.7349C407.696,1161.1787,407.1901,1157.9255,406.8732,1154.6372z M687.7575,1135.6959
	c-0.366,0.0842-0.7321,0.1685-1.0982,0.2527c-0.7828,5.8724-1.5657,11.745-2.2726,17.0475
	c1.7408,2.2695,1.9847-2.5647,3.4606-0.0444c1.1274,1.9252,2.7403,1.2445,3.8054,0.6187c1.203-0.707,0.989-2.3463,0.5787-3.6639
	C690.7552,1145.1649,689.2512,1140.4321,687.7575,1135.6959z M735.6713,1136.6791c-0.3604-0.0226-0.7208-0.0453-1.0811-0.068
	c-1.2017,3.7466-2.4959,7.4673-3.5477,11.2555c-0.3099,1.1162-1.8474,2.5602-0.2899,3.5315
	c1.6161,1.0078,3.5843,0.0857,5.3351-0.1989c1.9851-0.3225,1.1764-2.0685,1.0428-3.2577
	C736.7082,1144.1802,736.1667,1140.4323,735.6713,1136.6791z M642.66,1136.6854c-0.2792,0.0411-0.5583,0.0823-0.8375,0.1234
	c0,5.8009-0.0168,11.6018,0.017,17.4025c0.0054,0.9302-0.1658,2.2694,1.1992,2.307c1.7206,0.0472,1.5346-1.3583,1.4154-2.5242
	C643.8643,1148.2238,643.2596,1142.4548,642.66,1136.6854z M263.4518,1164.3158c-1.2482,3.5929-2.4151,6.6329-3.3283,9.7474
	c-0.3367,1.1482-1.6108,2.6478-0.4626,3.5656c1.2864,1.0281,3.2163,0.5515,4.7625,0.146c2.2885-0.6002,0.9751-2.4308,0.8293-3.6975
	C264.8997,1171.0107,264.8811,1167.8679,263.4518,1164.3158z M1776.6349,1079.7463c-0.4406,0.0648-0.881,0.1298-1.3215,0.1946
	c-0.1863,3.703-0.3502,7.4075-0.5702,11.1085c-0.0841,1.4155,0.3452,2.2793,1.9081,2.0581
	c1.3636-0.1927,3.1348,0.5354,3.7926-1.4364c0.5785-1.7336,1.3722-3.9152-0.3203-5.0603
	C1777.6035,1084.9058,1777.0134,1082.4718,1776.6349,1079.7463z M1671.5077,1088.4205c-0.3582-0.0575-0.7163-0.1149-1.0745-0.1724
	c-1.2668,3.4795-2.5338,6.9589-3.8423,10.5529c6.73,0.5269,6.7273,0.5273,5.774-5.1263
	C1672.0699,1091.9248,1671.793,1090.172,1671.5077,1088.4205z M1545.6958,1105.7766c-0.1484-4.7344,1.652-9.6544-0.9722-15.2583
	C1543.0469,1096.4303,1542.6608,1101.2,1545.6958,1105.7766z M1626.9155,1101.3623c1.4618-4.1724-0.1385-8.0627-0.5256-12.057
	C1625.7441,1093.3824,1625.3441,1097.4429,1626.9155,1101.3623z M780.5543,1136.7083c-1.5128,3.917-2.1154,7.9178-0.892,12.087
	C781.2684,1144.8868,780.6296,1140.7716,780.5543,1136.7083z M601.6622,1147.7798c-0.2048,0.0385-0.4095,0.0768-0.6144,0.1152
	c0.3521,3.0682,0.6757,6.14,1.0718,9.2026c0.1377,1.0649,0.6769,2.025,1.9391,1.6229c1.0373-0.3304,0.7404-1.3225,0.4902-2.1031
	C603.6035,1153.6663,602.6271,1150.7249,601.6622,1147.7798z M1500.8093,1098.9196c-0.2247-0.0741-0.4496-0.1482-0.6743-0.2223
	c-0.8737,2.5537-1.7626,5.1023-2.6124,7.6639c-0.2905,0.8756-0.9211,2.0634,0.5917,2.2938
	c1.2167,0.1853,1.5702-0.9624,1.7081-1.9651C1500.1782,1104.1035,1500.4838,1101.5101,1500.8093,1098.9196z M856.9258,1138.6415
	c-0.5717,2.0527-2.6157,3.6187-1.5977,5.8473c0.1325,0.2902,1.8549,0.3591,2.1282-0.0049
	C858.8809,1142.5874,857.8806,1140.6093,856.9258,1138.6415z M1722.0618,1088.9169c-0.5217,2.3254-1.9568,4.6353,0,8.4263
	C1722.0618,1093.5897,1722.0618,1091.2533,1722.0618,1088.9169z M308.4968,1165.2891c-0.0837,3.3514-1.877,6.6427-0.3351,9.8845
	C309.4963,1171.8625,309.0462,1168.5264,308.4968,1165.2891z M1459.7804,1087.0695c-0.097-0.3621-0.4471-0.3617-0.4583,0.0903
	c-0.0576,2.3375-1.3407,4.7046,0.4583,7.8878C1459.7804,1091.847,1459.7804,1089.4972,1459.7804,1087.0695z M11.8908,1186.5452
	c-0.678,1.6293-1.2642,3.2975-0.3985,5.5698C12.8541,1189.9974,12.0982,1188.2528,11.8908,1186.5452z M966.4657,1131.9408
	c0.0374-0.3317,0.1982-0.7015,0.0806-0.9244c-0.2891-0.547-0.7544-1.7705-1.0795-1.3431
	C964.9736,1130.3215,965.4911,1131.4194,966.4657,1131.9408z M385.2818,1166.9784c-0.1164,1.4034-2.0715,2.3859-0.8065,3.9286
	c0.1707,0.2081,1.1391,0.1483,1.3048-0.0894C386.7336,1169.45,386.3326,1168.1765,385.2818,1166.9784z M1219.7513,1121.0201
	c0.1672,0.2697-1.682,1.5166,0.2134,2.9768C1219.8563,1122.4836,1219.7706,1121.2882,1219.7513,1121.0201z M101.713,1186.7223
	c0.1148-0.2461,0.3428-0.5038,0.3191-0.7357c-0.0398-0.3888-0.1577-0.9441-0.7557-0.6063
	c-0.1643,0.0928-0.2142,0.5781-0.1439,0.8363C101.1886,1186.4226,101.5071,1186.557,101.713,1186.7223z M364.5003,1131.0002
	c-0.1111,0.1111-0.3313,0.2466-0.313,0.3285c0.0526,0.2352,0.2016,0.4491,0.3127,0.6713c0.1111-0.1112,0.3302-0.2446,0.3127-0.3291
	C364.764,1131.4349,364.6173,1131.2192,364.5003,1131.0002z"/>
<path fill="#020101" d="M1,1160c2.6901,4.1021,0.8472,8.6553,1.1226,12.9761C2.2665,1175.2336,3.6157,1178.049,1,1180
	C1,1173.3334,1,1166.6666,1,1160z"/>
<path fill="#020101" d="M1,1149c1.7233,2.4739,1.7233,3.5446,0,6C1,1153,1,1151,1,1149z"/>
<path fill="#020101" d="M397.9537,1102.0219c-0.6731,0.6868-0.5979,2.1326-2.0541,2.025
	C396.5844,1103.3719,397.2691,1102.6969,397.9537,1102.0219z"/>
<path fill="#020101" d="M234.9746,1174.0706c-0.7892-0.5483-0.189-1.2893-0.269-1.9341c0.125-0.4155,0.2508-0.833,0.3771-1.2522
	C236.0129,1171.978,236.6727,1173.0645,234.9746,1174.0706z"/>
<path fill="#020101" d="M475.3417,1100.1532c-0.1064,0.6411-0.2128,1.2823-0.3194,1.9235c-1.5429-1.1173-1.4647-2.2645-0.064-3.4388
	C475.0858,1099.1411,475.2137,1099.6472,475.3417,1100.1532z"/>
<path fill="#020101" d="M777.3911,1076.9696c1.3585,0.1707,1.8586-0.476,1.2176-1.6211c-0.4217-0.7534-1.4294-0.9016-1.9952-0.1547
	c-0.8003,1.0566-0.8456,2.0078,0.9489,1.8159C777.5441,1077.0022,777.3911,1076.9696,777.3911,1076.9696z"/>
<path fill="#020101" d="M367.1125,1102.3066c0.4771,0.7258,1.2797,1.4341,0.0958,2.2598c-0.0249,0.0118,0.0619-0.0096,0.0343,0.0054
	c0.1885-0.6897,0.0528-1.2992-0.5137-1.7888c0.0021,0.0029,0.4089-0.0647,0.4089-0.0647L367.1125,1102.3066z"/>
<path fill="#020101" d="M949.9601,1094.8218c-0.1257-0.1013-0.2503-0.2018-0.3749-0.3024
	c-0.1729,0.2168-0.3534,0.4288-0.5009,0.6616c-0.0099,0.0156,0.2303,0.1898,0.3542,0.2904
	C949.6128,1095.2552,949.787,1095.0389,949.9601,1094.8218z"/>
<path fill="#020101" d="M39.6698,1186.3112c-0.6129-0.6858-1.3729-1.5889-0.5362-2.2979c0.5761-0.4882,1.2617,0.3871,1.61,1.0731
	C40.3855,1185.4945,40.0277,1185.9028,39.6698,1186.3112z"/>
<path fill="#020101" d="M97.8313,1173.0675c-0.3675-0.2502-0.7437-0.5095-0.2247-0.95c0.0551-0.0466,0.3204,0.0499,0.396,0.1498
	c0.314,0.4147,0.4294,0.7952-0.3189,0.8456C97.6722,1173.1146,97.8313,1173.0675,97.8313,1173.0675z"/>
<path fill="#020101" d="M392.5347,1142.4906c-0.1332,0.0604-0.3758,0.1115-0.3819,0.1829c-0.0396,0.46,0.1443,0.5248,0.4244,0.1454
	c0.0435-0.059-0.1143-0.2667-0.1709-0.4042C392.4143,1142.4161,392.5347,1142.4906,392.5347,1142.4906z"/>
<path fill="#020101" d="M447.4748,1165.4026c0.3539-0.2104,0.958-0.6606,1.0221-0.5938c0.5356,0.5594,0.2585,1.0098-0.3514,1.3274
	C447.9186,1165.8948,447.695,1165.6503,447.4748,1165.4026z"/>
<path fill="#020101" d="M397.9383,1140.4702c0.3173-0.3605,0.2915-0.4501-0.0773-0.2687c0.0929,0.0841,0.1858,0.1682,0.2877,0.2534
	C398.1577,1140.4561,397.9383,1140.4702,397.9383,1140.4702z"/>
<path fill="#020101" d="M400.5786,1135.3939c-0.0567,0.1171-0.1135,0.2343-0.1702,0.3513c0.0419-0.1301,0.0838-0.2603,0.1238-0.3925
	C400.5303,1135.3507,400.5786,1135.3939,400.5786,1135.3939z"/>
<path fill="#020101" d="M1695.433,1075.4647c0.0126-0.7275,0.0251-1.455,0.0377-2.1825c0.3344,0.4435,0.6687,0.887,1.0032,1.3303
	C1696.1268,1074.8965,1695.7799,1075.1805,1695.433,1075.4647z"/>
<path fill="#020101" d="M1597.2576,1088.0244c0.2784-0.7969,1.1898-1.6461,1.6046-1.3285c1.1753,0.8999,0.0309,1.8398-0.4042,2.7301
	C1598.058,1088.9589,1597.6577,1088.4917,1597.2576,1088.0244z"/>
<path fill="#020101" d="M1806.5803,1062.9429c-0.2552,0.0737-0.5105,0.1476-0.7657,0.2214
	c0.0883,0.2128,0.1764,0.4255,0.2646,0.6383c0.2545-0.1399,0.5278-0.256,0.7523-0.4338c0.0673-0.0533,0.0504-0.3206-0.0237-0.4135
	c-0.0696-0.0872-0.2656-0.0737-0.3918-0.0984C1806.4304,1062.8633,1806.5803,1062.9429,1806.5803,1062.9429z"/>
<path fill="#020101" d="M1913.3251,1046.9558c-0.0377-0.0817-0.0756-0.1635-0.1133-0.2451c0.0594,0.037,0.1188,0.0741,0.1836,0.0992
	C1913.4008,1046.798,1913.3251,1046.9558,1913.3251,1046.9558z"/>
<path fill="#020101" d="M1773.5928,1029.8414c0.0673,0.0917,0.1345,0.1833,0.2017,0.2751c-0.0675-0.0105-0.135-0.0209-0.2106-0.0399
	C1773.5758,1030.068,1773.5928,1029.8414,1773.5928,1029.8414z"/>
<path fill="#020101" d="M1804.3226,1019.637c-0.0907,0.0453-0.1814,0.0906-0.2721,0.136c0.0114-0.0369,0.0227-0.0739,0.0439-0.1262
	C1804.1042,1019.6314,1804.3226,1019.637,1804.3226,1019.637z"/>
<path fill="#020101" d="M1512.7981,1084.8619c0.0931-0.9253,0.1863-1.8507,0.3508-3.4834c0.8335,1.7457,0.8894,2.7709,0.0841,3.7998
	C1513.0916,1085.0703,1512.946,1084.9645,1512.7981,1084.8619z"/>
<path fill="#020101" d="M1298.1589,1110.9946c0.384-0.8204,0.9905-2.1917,1.7677-1.5912c0.9816,0.7585-0.0731,1.9333-0.6824,2.8152
	C1298.8824,1111.8107,1298.5206,1111.4027,1298.1589,1110.9946z"/>
<path fill="#020101" d="M1786.3997,1064.9028c-0.2809-0.1519-0.5619-0.3037-0.8428-0.4556
	c0.1011-0.1101,0.2021-0.2202,0.3033-0.3303c0.1796,0.2655,0.3591,0.5309,0.5387,0.7974
	C1786.3989,1064.9152,1786.3997,1064.9028,1786.3997,1064.9028z"/>
<path fill="#020101" d="M564.709,1154.7267c0.2719-0.2948,0.5436-0.5895,0.8156-0.8843c0.039,0.5479,0.0781,1.0957,0.1172,1.6433
	C565.3309,1155.2325,565.02,1154.9796,564.709,1154.7267z"/>
<path fill="#020101" d="M589.0222,1131.9686c-0.3251,1.3739,0.9645,2.7446,0.0082,4.1198
	C587.7817,1134.7175,587.707,1133.3445,589.0222,1131.9686z"/>
<path fill="#020101" d="M400.6302,1106.5024c-0.179-0.2223-0.5402-0.6062-0.5087-0.6417c0.3071-0.3464,0.4183-0.2452,0.3149,0.2426
	c-0.0224,0.1056,0.1285,0.2479,0.2,0.3771C400.6366,1106.484,400.6302,1106.5024,400.6302,1106.5024z"/>
<linearGradient id="SVGID_2_" gradientUnits="userSpaceOnUse" x1="266.2452" y1="447" x2="266.2452" y2="51">
	<stop  offset="0" style="stop-color:#D5E609"/>
	<stop  offset="0.0191" style="stop-color:#D5E00C"/>
	<stop  offset="0.1802" style="stop-color:#D2AF24"/>
	<stop  offset="0.3217" style="stop-color:#D08B35"/>
	<stop  offset="0.4367" style="stop-color:#CF7540"/>
	<stop  offset="0.5109" style="stop-color:#CF6D44"/>
	<stop  offset="0.8533" style="stop-color:#FF512E"/>
</linearGradient>
<circle fill="url(#SVGID_2_)" cx="266.2452" cy="249" r="198"/>
</svg>
